<svg width="95" height="82" viewBox="0 0 95 82" fill="none" xmlns="http://www.w3.org/2000/svg">
<g clip-path="url(#clip0_144_487)">
<path d="M84.7473 35.6524C82.8596 34.3979 77.8991 33.8621 74.2928 34.8211C74.0983 31.2748 72.2463 28.2863 68.8578 25.6788L67.6034 24.8475L66.7675 26.094C65.1242 28.5567 64.4318 31.8377 64.6772 34.8201C64.8707 36.6576 65.5182 38.7232 66.7675 40.222C62.0737 42.9099 57.7475 42.2997 38.5876 42.2997H9.00579C8.91924 46.5708 9.61465 54.7872 14.9071 61.4758C15.4915 62.2146 16.133 62.9293 16.8284 63.6179C21.1312 67.8718 27.6322 70.991 37.3536 71C52.1843 71.0131 64.891 63.0992 72.6199 43.9633C75.1633 44.0045 81.8771 44.4136 85.1627 38.1452C85.2432 38.0397 85.9987 36.4827 85.9987 36.4827L84.7463 35.6514L84.7473 35.6524ZM28.3113 31.7462H19.9928V39.9586H28.3113V31.7462ZM39.058 31.7462H30.7396V39.9586H39.058V31.7462ZM49.8048 31.7462H41.4864V39.9586H49.8048V31.7462ZM60.5516 31.7462H52.2331V39.9586H60.5516V31.7462ZM17.5645 31.7462H9.24607V39.9586H17.5645V31.7462ZM28.3113 21.3736H19.9928V29.586H28.3113V21.3736ZM39.058 21.3736H30.7396V29.586H39.058V21.3736ZM49.8048 21.3736H41.4864V29.586H49.8048V21.3736ZM49.8048 11H41.4864V19.2124H49.8048V11Z" fill="#1D63ED"/>
</g>
<defs>
<clipPath id="clip0_144_487">
<rect width="77" height="60" fill="white" transform="translate(9 11)"/>
</clipPath>
</defs>
</svg>
