<svg width="134" height="82" viewBox="0 0 134 82" fill="none" xmlns="http://www.w3.org/2000/svg">
<path d="M20.9685 33.0403C20.7573 33.0403 20.7045 32.9351 20.8101 32.7773L21.9188 31.3572C22.0243 31.1994 22.2883 31.0942 22.4995 31.0942H41.3463C41.5575 31.0942 41.6103 31.252 41.5047 31.4098L40.6072 32.7773C40.5016 32.9351 40.2377 33.0929 40.0793 33.0929L20.9685 33.0403Z" fill="#00ACD7"/>
<path d="M12.9968 37.8791C12.7856 37.8791 12.7329 37.7739 12.8384 37.6162L13.9471 36.1961C14.0527 36.0383 14.3166 35.9331 14.5278 35.9331H38.6011C38.8122 35.9331 38.9178 36.0909 38.865 36.2487L38.4427 37.511C38.3899 37.7213 38.1787 37.8265 37.9675 37.8265L12.9968 37.8791Z" fill="#00ACD7"/>
<path d="M25.7726 42.718C25.5614 42.718 25.5086 42.5602 25.6142 42.4024L26.3533 41.0875C26.4589 40.9298 26.67 40.772 26.8812 40.772H37.4397C37.6508 40.772 37.7564 40.9298 37.7564 41.1401L37.6508 42.4024C37.6508 42.6128 37.4397 42.7706 37.2813 42.7706L25.7726 42.718Z" fill="#00ACD7"/>
<path d="M80.571 32.094C77.2451 32.9355 74.975 33.5666 71.7019 34.4082C70.91 34.6185 70.8572 34.6711 70.1709 33.8822C69.3791 32.9881 68.7983 32.4095 67.6897 31.8836C64.3638 30.2531 61.1435 30.7265 58.1343 32.6725C54.5444 34.9867 52.6967 38.4054 52.7495 42.6656C52.8023 46.8732 55.7059 50.3445 59.8765 50.923C63.4663 51.3964 66.4755 50.1341 68.8511 47.4518C69.3263 46.8732 69.7486 46.2421 70.2765 45.5057C68.376 45.5057 66.0004 45.5057 60.0876 45.5057C58.979 45.5057 58.715 44.822 59.0846 43.9279C59.7709 42.2974 61.0379 39.5625 61.777 38.195C61.9354 37.8794 62.3049 37.3535 63.0968 37.3535C65.7892 37.3535 75.7141 37.3535 82.3132 37.3535C82.2076 38.7736 82.2076 40.1936 81.9964 41.6137C81.4157 45.4005 79.9903 48.8718 77.6674 51.9223C73.8664 56.9189 68.9039 60.022 62.6217 60.8635C57.448 61.5473 52.6439 60.5479 48.4205 57.3922C44.5139 54.4469 42.2966 50.5549 41.7159 45.7161C41.0296 39.9832 42.719 34.8289 46.2033 30.3057C49.9515 25.4144 54.914 22.3113 60.9851 21.2068C65.9476 20.3127 70.6989 20.8912 74.975 23.7839C77.773 25.6248 79.7791 28.1493 81.0989 31.1999C81.4157 31.6732 81.2045 31.9362 80.571 32.094Z" fill="#00ACD7"/>
<path d="M98.0451 61.1794C93.241 61.0742 88.8592 59.7067 85.1638 56.551C82.049 53.8686 80.0957 50.4499 79.4622 46.4001C78.512 40.4569 80.1485 35.1974 83.7384 30.5164C87.5922 25.4673 92.2379 22.8375 98.5202 21.733C103.905 20.7863 108.973 21.3122 113.566 24.4154C117.737 27.2555 120.323 31.0949 121.01 36.1441C121.907 43.2444 119.848 49.0299 114.939 53.9738C111.454 57.4977 107.178 59.7067 102.268 60.706C100.843 60.969 99.4177 61.0216 98.0451 61.1794ZM110.61 39.9309C110.557 39.2472 110.557 38.7212 110.451 38.1953C109.501 32.9884 104.697 30.043 99.6817 31.2001C94.772 32.3046 91.6044 35.4077 90.443 40.3517C89.4927 44.4541 91.4989 48.6091 95.2999 50.2922C98.2035 51.5544 101.107 51.3967 103.905 49.9766C108.076 47.8202 110.346 44.4541 110.61 39.9309Z" fill="#00ACD7"/>
</svg>
