<svg width="634" height="541" viewBox="0 0 634 541" fill="none" xmlns="http://www.w3.org/2000/svg">
<path d="M289.641 396.081L472.207 271L472.707 371.755L290.141 496.836L289.641 396.081Z" fill="#FFEDCE"/>
<path d="M314.641 440.081L497.207 315L497.707 415.755L315.141 540.836L314.641 440.081Z" fill="#FFD68E"/>
<path d="M371.535 133.012L565.676 -6.54627e-06L566.208 107.143L372.067 240.155L371.535 133.012Z" fill="#FFEDCE"/>
<path d="M59.1708 328.159L295.854 166L296.502 296.621L59.819 458.78L59.1708 328.159Z" fill="#FFEDCE"/>
<path d="M86.1708 368.159L322.854 206L323.502 336.621L86.819 498.78L86.1708 368.159Z" fill="#FFD68E"/>
<path d="M390.792 179.012L584.933 46L585.465 153.143L391.324 286.155L390.792 179.012Z" fill="#FFCF7A"/>
</svg>
