<svg width="11" height="10" viewBox="0 0 11 10" fill="none" xmlns="http://www.w3.org/2000/svg">
<g clip-path="url(#clip0_79_168)">
<path d="M5.42969 0.900391C6.76563 0.900391 6.92383 0.90625 7.44922 0.929687C7.9375 0.951172 8.20117 1.0332 8.37695 1.10156C8.60938 1.19141 8.77734 1.30078 8.95117 1.47461C9.12695 1.65039 9.23438 1.81641 9.32422 2.04883C9.39258 2.22461 9.47461 2.49023 9.49609 2.97656C9.51953 3.50391 9.52539 3.66211 9.52539 4.99609C9.52539 6.33203 9.51953 6.49024 9.49609 7.01563C9.47461 7.50391 9.39258 7.76758 9.32422 7.94336C9.23438 8.17578 9.125 8.34375 8.95117 8.51758C8.77539 8.69336 8.60938 8.80078 8.37695 8.89063C8.20117 8.95899 7.93555 9.04102 7.44922 9.0625C6.92188 9.08594 6.76367 9.0918 5.42969 9.0918C4.09375 9.0918 3.93555 9.08594 3.41016 9.0625C2.92188 9.04102 2.6582 8.95899 2.48242 8.89063C2.25 8.80078 2.08203 8.69141 1.9082 8.51758C1.73242 8.3418 1.625 8.17578 1.53516 7.94336C1.4668 7.76758 1.38477 7.50195 1.36328 7.01563C1.33984 6.48828 1.33398 6.33008 1.33398 4.99609C1.33398 3.66016 1.33984 3.50195 1.36328 2.97656C1.38477 2.48828 1.4668 2.22461 1.53516 2.04883C1.625 1.81641 1.73438 1.64844 1.9082 1.47461C2.08398 1.29883 2.25 1.19141 2.48242 1.10156C2.6582 1.0332 2.92383 0.951172 3.41016 0.929687C3.93555 0.90625 4.09375 0.900391 5.42969 0.900391ZM5.42969 0C4.07227 0 3.90234 0.00585937 3.36914 0.0292969C2.83789 0.0527344 2.47266 0.138672 2.15625 0.261719C1.82617 0.390625 1.54688 0.560547 1.26953 0.839844C0.990234 1.11719 0.820313 1.39648 0.691406 1.72461C0.568359 2.04297 0.482422 2.40625 0.458984 2.9375C0.435547 3.47266 0.429688 3.64258 0.429688 5C0.429688 6.35742 0.435547 6.52734 0.458984 7.06055C0.482422 7.5918 0.568359 7.95703 0.691406 8.27344C0.820313 8.60352 0.990234 8.88281 1.26953 9.16016C1.54688 9.4375 1.82617 9.60938 2.1543 9.73633C2.47266 9.85938 2.83594 9.94531 3.36719 9.96875C3.90039 9.99219 4.07031 9.99805 5.42773 9.99805C6.78516 9.99805 6.95508 9.99219 7.48828 9.96875C8.01953 9.94531 8.38477 9.85938 8.70117 9.73633C9.0293 9.60938 9.30859 9.4375 9.58594 9.16016C9.86328 8.88281 10.0352 8.60352 10.1621 8.27539C10.2852 7.95703 10.3711 7.59375 10.3945 7.0625C10.418 6.5293 10.4238 6.35938 10.4238 5.00195C10.4238 3.64453 10.418 3.47461 10.3945 2.94141C10.3711 2.41016 10.2852 2.04492 10.1621 1.72852C10.0391 1.39648 9.86914 1.11719 9.58984 0.839844C9.3125 0.5625 9.0332 0.390625 8.70508 0.263672C8.38672 0.140625 8.02344 0.0546875 7.49219 0.03125C6.95703 0.00585938 6.78711 0 5.42969 0Z" fill="black"/>
<path d="M5.42969 2.43164C4.01172 2.43164 2.86133 3.58203 2.86133 5C2.86133 6.41797 4.01172 7.56836 5.42969 7.56836C6.84766 7.56836 7.99805 6.41797 7.99805 5C7.99805 3.58203 6.84766 2.43164 5.42969 2.43164ZM5.42969 6.66602C4.50977 6.66602 3.76367 5.91992 3.76367 5C3.76367 4.08008 4.50977 3.33398 5.42969 3.33398C6.34961 3.33398 7.0957 4.08008 7.0957 5C7.0957 5.91992 6.34961 6.66602 5.42969 6.66602Z" fill="black"/>
<path d="M8.69922 2.33008C8.69922 2.66211 8.42969 2.92969 8.09961 2.92969C7.76758 2.92969 7.5 2.66016 7.5 2.33008C7.5 1.99805 7.76953 1.73047 8.09961 1.73047C8.42969 1.73047 8.69922 2 8.69922 2.33008Z" fill="black"/>
</g>
<defs>
<clipPath id="clip0_79_168">
<rect width="10" height="10" fill="white" transform="translate(0.429688)"/>
</clipPath>
</defs>
</svg>
