<svg width="11" height="10" viewBox="0 0 11 10" fill="none" xmlns="http://www.w3.org/2000/svg">
<g clip-path="url(#clip0_79_174)">
<path d="M9.68945 0H1.16797C0.759766 0 0.429688 0.322266 0.429688 0.720703V9.27734C0.429688 9.67578 0.759766 10 1.16797 10H9.68945C10.0977 10 10.4297 9.67578 10.4297 9.2793V0.720703C10.4297 0.322266 10.0977 0 9.68945 0ZM3.39648 8.52148H1.91211V3.74805H3.39648V8.52148ZM2.6543 3.09766C2.17773 3.09766 1.79297 2.71289 1.79297 2.23828C1.79297 1.76367 2.17773 1.37891 2.6543 1.37891C3.12891 1.37891 3.51367 1.76367 3.51367 2.23828C3.51367 2.71094 3.12891 3.09766 2.6543 3.09766ZM8.95117 8.52148H7.46875V6.20117C7.46875 5.64844 7.45898 4.93555 6.69727 4.93555C5.92578 4.93555 5.80859 5.53906 5.80859 6.16211V8.52148H4.32813V3.74805H5.75V4.40039H5.76953C5.9668 4.02539 6.45117 3.62891 7.17188 3.62891C8.67383 3.62891 8.95117 4.61719 8.95117 5.90234V8.52148Z" fill="black"/>
</g>
<defs>
<clipPath id="clip0_79_174">
<rect width="10" height="10" fill="white" transform="translate(0.429688)"/>
</clipPath>
</defs>
</svg>
