<svg width="180" height="82" viewBox="0 0 180 82" fill="none" xmlns="http://www.w3.org/2000/svg">
<mask id="mask0_144_436" style="mask-type:luminance" maskUnits="userSpaceOnUse" x="0" y="14" width="180" height="54">
<path d="M180 14.2097H0V67.7901H180V14.2097Z" fill="white"/>
</mask>
<g mask="url(#mask0_144_436)">
<path d="M158.416 67.3691C157.95 67.3691 157.516 67.244 157.112 67.0251L152.986 64.5559C152.365 64.212 152.676 64.087 152.862 64.0245C153.699 63.7431 153.854 63.6806 154.723 63.1805C154.816 63.118 154.94 63.1494 155.033 63.2119L158.198 65.1185C158.322 65.181 158.477 65.181 158.57 65.1185L170.949 57.898C171.073 57.8355 171.136 57.7105 171.136 57.5543V43.1445C171.136 42.9883 171.073 42.8633 170.949 42.8008L158.57 35.6117C158.446 35.5491 158.291 35.5491 158.198 35.6117L145.819 42.8008C145.695 42.8633 145.633 43.0195 145.633 43.1445V57.5543C145.633 57.6793 145.695 57.8355 145.819 57.898L149.2 59.8673C151.031 60.8049 152.179 59.711 152.179 58.6169V44.3949C152.179 44.2074 152.334 44.0199 152.552 44.0199H154.134C154.32 44.0199 154.506 44.1761 154.506 44.3949V58.6169C154.506 61.0864 153.172 62.5241 150.845 62.5241C150.131 62.5241 149.573 62.5241 147.99 61.7428L144.733 59.8673C143.927 59.3984 143.43 58.5232 143.43 57.5854V43.1759C143.43 42.2381 143.927 41.3629 144.733 40.894L157.112 33.6737C157.888 33.2361 158.943 33.2361 159.718 33.6737L172.098 40.894C172.904 41.3629 173.4 42.2381 173.4 43.1759V57.5854C173.4 58.5232 172.904 59.3984 172.098 59.8673L159.718 67.0876C159.346 67.244 158.881 67.3691 158.416 67.3691Z" fill="#5FA04E"/>
<path d="M162.263 57.4604C156.833 57.4604 155.716 54.9598 155.716 52.8343C155.716 52.6467 155.871 52.4592 156.088 52.4592H157.701C157.888 52.4592 158.043 52.5842 158.043 52.7718C158.291 54.4283 159.004 55.2412 162.293 55.2412C164.9 55.2412 166.017 54.6472 166.017 53.2407C166.017 52.428 165.705 51.8341 161.641 51.4277C158.26 51.0838 156.15 50.3337 156.15 47.6142C156.15 45.0825 158.26 43.582 161.796 43.582C165.769 43.582 167.723 44.9574 167.971 47.9581C167.971 48.0519 167.94 48.1456 167.879 48.2395C167.815 48.302 167.723 48.3645 167.629 48.3645H165.984C165.831 48.3645 165.675 48.2395 165.644 48.0831C165.271 46.364 164.309 45.8014 161.765 45.8014C158.911 45.8014 158.57 46.8016 158.57 47.5517C158.57 48.4582 158.973 48.7396 162.82 49.2397C166.636 49.7397 168.436 50.4587 168.436 53.1468C168.436 55.8974 166.171 57.4604 162.263 57.4604Z" fill="#5FA04E"/>
<path d="M180.135 42.3315C180.135 43.6444 179.048 44.7384 177.744 44.7384C176.442 44.7384 175.356 43.6756 175.356 42.3315C175.356 40.9563 176.473 39.9248 177.744 39.9248C179.017 39.9248 180.135 40.9875 180.135 42.3315ZM175.729 42.3315C175.729 43.4569 176.629 44.3633 177.713 44.3633C178.831 44.3633 179.731 43.4256 179.731 42.3315C179.731 41.2063 178.831 40.3312 177.713 40.3312C176.66 40.3312 175.729 41.2063 175.729 42.3315ZM176.846 40.9875H177.777C178.087 40.9875 178.708 40.9875 178.708 41.7064C178.708 42.2065 178.396 42.3003 178.209 42.3628C178.583 42.394 178.613 42.6442 178.644 42.988C178.675 43.2068 178.708 43.5819 178.769 43.7069H178.209C178.209 43.5819 178.117 42.8943 178.117 42.8629C178.087 42.7068 178.025 42.6442 177.839 42.6442H177.373V43.7381H176.846V40.9875ZM177.342 42.1753H177.744C178.087 42.1753 178.148 41.9253 178.148 41.8002C178.148 41.4252 177.9 41.4252 177.744 41.4252H177.311V42.1753H177.342Z" fill="#5FA04E"/>
<path fill-rule="evenodd" clip-rule="evenodd" d="M29.4429 42.5286C29.4429 41.966 29.1328 41.4348 28.6364 41.1534L15.5126 33.4953C15.2955 33.3703 15.0473 33.3078 14.799 33.2766C14.768 33.2766 14.675 33.2766 14.675 33.2766C14.4268 33.2766 14.1785 33.3703 13.9614 33.4953L0.806656 41.1221C0.310253 41.4035 0 41.9349 0 42.5286L0.0310253 63.0335C0.0310253 63.3149 0.186152 63.5961 0.434355 63.7211C0.682557 63.8775 0.992811 63.8775 1.20999 63.7211L9.02838 59.2201C9.52476 58.9388 9.83501 58.4075 9.83501 57.8449V48.2488C9.83501 47.6862 10.1453 47.1547 10.6417 46.8735L13.9614 44.9355C14.2096 44.7792 14.4888 44.7166 14.768 44.7166C15.0473 44.7166 15.3265 44.7792 15.5437 44.9355L18.8633 46.8735C19.3597 47.1547 19.6701 47.6862 19.6701 48.2488V57.8449C19.6701 58.4075 19.9803 58.9388 20.4767 59.2201L28.2331 63.7211C28.4812 63.8775 28.7914 63.8775 29.0397 63.7211C29.288 63.5961 29.4429 63.3149 29.4429 63.0335V42.5286Z" fill="#333333"/>
<path fill-rule="evenodd" clip-rule="evenodd" d="M92.673 14.3035C92.4243 14.1785 92.1141 14.1785 91.8971 14.3035C91.649 14.4598 91.4939 14.7098 91.4939 14.9912V35.3084C91.4939 35.4959 91.4009 35.6834 91.2141 35.8086C91.0281 35.9023 90.842 35.9023 90.656 35.8086L87.3674 33.9018C86.8712 33.6206 86.2813 33.6206 85.7852 33.9018L72.6303 41.5599C72.1341 41.8413 71.824 42.3725 71.824 42.9352V58.22C71.824 58.7828 72.1341 59.314 72.6303 59.5954L85.7852 67.2535C86.2813 67.5347 86.8712 67.5347 87.3674 67.2535L100.522 59.5954C101.018 59.314 101.329 58.7828 101.329 58.22V20.1174C101.329 19.5235 101.018 18.9921 100.522 18.7108L92.673 14.3035ZM91.4629 53.1877C91.4629 53.3439 91.4009 53.4689 91.2768 53.5314L86.7775 56.1572C86.6535 56.2197 86.4984 56.2197 86.3744 56.1572L81.8757 53.5314C81.7517 53.4689 81.6897 53.3127 81.6897 53.1877V47.9365C81.6897 47.7801 81.7517 47.6551 81.8757 47.5926L86.3744 44.967C86.4984 44.9045 86.6535 44.9045 86.7775 44.967L91.2768 47.5926C91.4009 47.6551 91.4629 47.8114 91.4629 47.9365V53.1877Z" fill="#333333"/>
<path fill-rule="evenodd" clip-rule="evenodd" d="M136.448 47.8112C136.945 47.5298 137.224 46.9986 137.224 46.4358V42.7162C137.224 42.1536 136.914 41.6222 136.448 41.341L123.386 33.7142C122.89 33.4328 122.301 33.4328 121.804 33.7142L108.65 41.3721C108.153 41.6535 107.843 42.1849 107.843 42.7476V58.0324C107.843 58.595 108.153 59.1264 108.65 59.4076L121.711 66.9094C122.208 67.1907 122.797 67.1907 123.262 66.9094L131.174 62.471C131.422 62.346 131.577 62.0646 131.577 61.7832C131.577 61.502 131.422 61.2206 131.174 61.0955L117.957 53.4375C117.709 53.2813 117.554 53.0312 117.554 52.7498V47.9675C117.554 47.6862 117.709 47.4048 117.957 47.2798L122.084 44.9042C122.332 44.748 122.642 44.748 122.89 44.9042L127.017 47.2798C127.265 47.4362 127.42 47.6862 127.42 47.9675V51.7184C127.42 51.9997 127.575 52.2809 127.824 52.406C128.072 52.5623 128.382 52.5623 128.63 52.406L136.448 47.8112Z" fill="#333333"/>
<path fill-rule="evenodd" clip-rule="evenodd" d="M122.394 47.0926C122.487 47.03 122.612 47.03 122.705 47.0926L125.217 48.5617C125.31 48.6242 125.372 48.718 125.372 48.843V51.7811C125.372 51.9062 125.31 52 125.217 52.0625L122.705 53.5316C122.612 53.5941 122.487 53.5941 122.394 53.5316L119.881 52.0625C119.788 52 119.726 51.9062 119.726 51.7811V48.843C119.726 48.718 119.788 48.6242 119.881 48.5617L122.394 47.0926Z" fill="#5FA04E"/>
<path d="M51.439 33.7768C50.9425 33.4956 50.353 33.4956 49.8566 33.7768L36.795 41.3725C36.2986 41.6538 36.0193 42.1851 36.0193 42.7478V57.97C36.0193 58.5328 36.3296 59.064 36.795 59.3454L49.8566 66.941C50.353 67.2222 50.9425 67.2222 51.439 66.941L64.5005 59.3454C64.9971 59.064 65.2762 58.5328 65.2762 57.97V42.7478C65.2762 42.1851 64.966 41.6538 64.5005 41.3725L51.439 33.7768Z" fill="url(#paint0_linear_144_436)"/>
<path d="M64.5315 41.3724L51.4079 33.7768C51.2837 33.7143 51.1287 33.6518 51.0045 33.6206L36.2986 58.9703C36.4227 59.1265 36.5777 59.2516 36.7329 59.3454L49.8567 66.941C50.2289 67.1597 50.6633 67.2222 51.0666 67.0972L64.8729 41.6538C64.7798 41.5288 64.6557 41.4349 64.5315 41.3724Z" fill="url(#paint1_linear_144_436)"/>
<path d="M64.5319 59.3448C64.9043 59.126 65.1835 58.7509 65.3076 58.3445L50.9428 33.5888C50.5706 33.5263 50.1671 33.5574 49.8259 33.7763L36.7952 41.3405L50.8497 67.1592C51.0358 67.1278 51.2531 67.0653 51.4393 66.9716L64.5319 59.3448Z" fill="url(#paint2_linear_144_436)"/>
</g>
<defs>
<linearGradient id="paint0_linear_144_436" x1="55.9674" y1="39.4338" x2="44.0151" y2="63.6354" gradientUnits="userSpaceOnUse">
<stop stop-color="#3F873F"/>
<stop offset="0.3296" stop-color="#3F8B3D"/>
<stop offset="0.6367" stop-color="#3E9638"/>
<stop offset="0.9341" stop-color="#3DA92E"/>
<stop offset="1" stop-color="#3DAE2B"/>
</linearGradient>
<linearGradient id="paint1_linear_144_436" x1="48.6627" y1="52.1364" x2="81.9743" y2="27.7069" gradientUnits="userSpaceOnUse">
<stop offset="0.1376" stop-color="#3F873F"/>
<stop offset="0.4016" stop-color="#52A044"/>
<stop offset="0.7129" stop-color="#64B749"/>
<stop offset="0.9081" stop-color="#6ABF4B"/>
</linearGradient>
<linearGradient id="paint2_linear_144_436" x1="35.5408" y1="50.3534" x2="65.7647" y2="50.3534" gradientUnits="userSpaceOnUse">
<stop offset="0.0919165" stop-color="#6ABF4B"/>
<stop offset="0.2871" stop-color="#64B749"/>
<stop offset="0.5984" stop-color="#52A044"/>
<stop offset="0.8624" stop-color="#3F873F"/>
</linearGradient>
</defs>
</svg>
