<svg width="82" height="82" viewBox="0 0 82 82" fill="none" xmlns="http://www.w3.org/2000/svg">
<path d="M41.13 33.8027C37.2155 33.8027 34.0422 36.9958 34.0422 40.9346C34.0422 44.8734 37.2155 48.0664 41.13 48.0664C45.0446 48.0664 48.2179 44.8734 48.2179 40.9346C48.2179 36.9958 45.0446 33.8027 41.13 33.8027Z" fill="#58C4DC"/>
<path d="M77.9948 40.9993C77.9948 35.4002 72.8418 30.4896 64.6373 27.2578C64.7469 26.53 64.8461 25.8101 64.9166 25.1033C65.7258 17.0582 63.7994 11.2516 59.4948 8.75025C54.6786 5.95204 47.8758 7.98304 40.9974 13.5217C34.119 7.98304 27.3162 5.95204 22.5 8.75025C18.1954 11.2516 16.2689 17.0582 17.0782 25.1033C17.1487 25.8101 17.2452 26.5327 17.3575 27.2631C16.6736 27.5258 16.0027 27.8043 15.3579 28.096C8.03309 31.4092 4 35.9966 4 40.9993C4 46.5983 9.15296 51.509 17.3575 54.7407C17.2452 55.4685 17.1487 56.1884 17.0782 56.8952C16.2689 64.9404 18.1954 70.747 22.5 73.2483C23.98 74.0927 25.657 74.5244 27.358 74.4989C31.4354 74.4989 36.1968 72.3392 40.9974 68.4769C45.7953 72.3392 50.5593 74.4989 54.642 74.4989C56.343 74.5241 58.0199 74.0924 59.5 73.2483C63.8046 70.747 65.7311 64.9404 64.9218 56.8952C64.8513 56.1884 64.7522 55.4685 64.6425 54.7407C72.847 51.5142 78 46.5957 78 40.9993M54.6107 11.0466C55.7044 11.0201 56.7855 11.2867 57.7432 11.8191C60.7321 13.5558 62.0739 18.2668 61.4213 24.7434C61.3769 25.1848 61.3247 25.6315 61.262 26.0807C57.8505 25.0467 54.3572 24.3092 50.8204 23.8763C48.6764 21.0078 46.2922 18.3295 43.6939 15.8706C47.774 12.6966 51.6035 11.0466 54.6081 11.0466M53.2063 48.0933C51.8861 50.3997 50.4484 52.636 48.8991 54.7932C46.273 55.0648 43.6347 55.1998 40.9948 55.1979C38.3557 55.1997 35.7183 55.0647 33.0931 54.7932C31.5479 52.6359 30.1146 50.3996 28.7989 48.0933C27.4788 45.7933 26.2789 43.4254 25.2044 40.9993C26.2789 38.5732 27.4788 36.2052 28.7989 33.9052C30.1125 31.6081 31.5414 29.3798 33.08 27.2289C35.7101 26.9507 38.3528 26.8121 40.9974 26.8138C43.6364 26.8122 46.2738 26.9472 48.8991 27.2184C50.443 29.3726 51.8771 31.6044 53.1959 33.9052C54.515 36.2058 55.7148 38.5737 56.7904 40.9993C55.7148 43.4249 54.515 45.7927 53.1959 48.0933M58.5864 45.4659C59.4148 47.7397 60.095 50.0656 60.6225 52.4286C58.3334 53.1468 55.9999 53.713 53.637 54.1233C54.535 52.7605 55.4051 51.3426 56.2474 49.8694C57.0801 48.4139 57.8607 46.9451 58.5968 45.4764M36.0402 58.5846C37.6639 58.6845 39.3215 58.7423 41 58.7423C42.6785 58.7423 44.3466 58.6845 45.9728 58.5846C44.4309 60.4435 42.7697 62.1989 41 63.8395C39.2341 62.1992 37.5773 60.4438 36.0402 58.5846ZM28.3604 54.118C25.9968 53.7095 23.6624 53.1452 21.3723 52.4286C21.8977 50.0693 22.5752 47.747 23.4006 45.4764C24.1263 46.9451 24.9042 48.4139 25.75 49.8694C26.5957 51.325 27.4702 52.7596 28.3604 54.1233M23.4006 36.5195C22.5782 34.2573 21.9024 31.9438 21.3775 29.5936C23.6619 28.8762 25.9901 28.3084 28.3473 27.8937C27.4546 29.252 26.5801 30.6603 25.7369 32.1291C24.8938 33.5978 24.1237 35.0481 23.3875 36.5195M45.9572 23.4113C44.3335 23.3114 42.6759 23.2536 40.9843 23.2536C39.3067 23.2536 37.6535 23.3062 36.0246 23.4113C37.5616 21.5521 39.2184 19.7967 40.9843 18.1564C42.7547 19.7963 44.4159 21.5517 45.9572 23.4113ZM56.2422 32.1291C55.3964 30.6542 54.5219 29.2354 53.6187 27.8726C55.9878 28.283 58.3275 28.85 60.6225 29.57C60.0959 31.9289 59.4184 34.2511 58.5942 36.5221C57.8685 35.0534 57.088 33.5847 56.2448 32.1317M20.584 24.746C19.9235 18.272 21.2731 13.5584 24.2594 11.8217C25.2174 11.2901 26.2983 11.0236 27.3919 11.0492C30.3965 11.0492 34.226 12.6993 38.3061 15.8732C35.7061 18.3338 33.3202 21.014 31.1744 23.8842C27.6386 24.3191 24.1456 25.0539 20.7328 26.0807C20.6727 25.6315 20.6179 25.1874 20.5761 24.746M16.8041 31.3303C17.2061 31.1552 17.6159 30.98 18.0336 30.8049C18.8547 34.2916 19.9681 37.7019 21.3619 40.9993C19.9655 44.3031 18.8512 47.7206 18.031 51.2147C11.3796 48.469 7.52406 44.6645 7.52406 40.9993C7.52406 37.5258 10.9176 34.0024 16.8041 31.3303ZM24.2594 70.1768C21.2731 68.4401 19.9235 63.7265 20.584 57.2525C20.6257 56.8111 20.6805 56.3671 20.7406 55.9152C24.1521 56.9489 27.6455 57.6864 31.1822 58.1196C33.3269 60.9891 35.7111 63.6692 38.3087 66.1306C32.6206 70.5525 27.4232 72.0108 24.2673 70.1768M61.4187 57.2525C62.0713 63.7291 60.7295 68.4401 57.7406 70.1768C54.5872 72.016 49.3873 70.5525 43.7018 66.1306C46.2985 63.6691 48.6818 60.9891 50.8256 58.1196C54.3624 57.6867 57.8558 56.9492 61.2673 55.9152C61.3299 56.3671 61.3821 56.8111 61.4265 57.2525M63.9795 51.2094C63.157 47.7173 62.0418 44.3017 60.646 40.9993C62.0412 37.695 63.1555 34.2776 63.9769 30.7838C70.6151 33.5295 74.4812 37.334 74.4812 40.9993C74.4812 44.6645 70.6256 48.469 63.9743 51.2147" fill="#58C4DC"/>
</svg>
