<svg width="574" height="396" viewBox="0 0 574 396" fill="none" xmlns="http://www.w3.org/2000/svg">
<mask id="path-1-inside-1_122_16" fill="white">
<path d="M100 100H198V198H100V100Z"/>
</mask>
<path d="M198 100H197.5V198H198H198.5V100H198Z" fill="#CDCDCD" mask="url(#path-1-inside-1_122_16)"/>
<rect x="298.25" y="100.25" width="97.5" height="97.5" stroke="#CDCDCD" stroke-width="0.5"/>
<mask id="path-4-inside-2_122_16" fill="white">
<path d="M100 198H198V298H100V198Z"/>
</mask>
<path d="M198 198H198.5V197.5H198V198ZM100 198V198.5H198V198V197.5H100V198ZM198 198H197.5V298H198H198.5V198H198Z" fill="#CDCDCD" mask="url(#path-4-inside-2_122_16)"/>
<mask id="path-6-inside-3_122_16" fill="white">
<path d="M0 100H100V198H0V100Z"/>
</mask>
<path d="M100 100H100.5V99.5H100V100ZM0 100V100.5H100V100V99.5H0V100ZM100 100H99.5V198H100H100.5V100H100Z" fill="#CDCDCD" mask="url(#path-6-inside-3_122_16)"/>
<mask id="path-8-inside-4_122_16" fill="white">
<path d="M0 198H100V298H0V198Z"/>
</mask>
<path d="M100 198H100.5V197.5H100V198ZM100 298V298.5H100.5V298H100ZM0 198V198.5H100V198V197.5H0V198ZM100 198H99.5V298H100H100.5V198H100ZM100 298V297.5H0V298V298.5H100V298Z" fill="#CDCDCD" mask="url(#path-8-inside-4_122_16)"/>
<mask id="path-10-inside-5_122_16" fill="white">
<path d="M100 298H198V396H100V298Z"/>
</mask>
<path d="M100 298V297.5H99.5V298H100ZM198 298H198.5V297.5H198V298ZM100 298V298.5H198V298V297.5H100V298ZM198 298H197.5V396H198H198.5V298H198ZM100 396H100.5V298H100H99.5V396H100Z" fill="#CDCDCD" mask="url(#path-10-inside-5_122_16)"/>
<mask id="path-12-inside-6_122_16" fill="white">
<path d="M298 298H396V396H298V298Z"/>
</mask>
<path d="M298 298V297.5H297.5V298H298ZM396 298H396.5V297.5H396V298ZM298 298V298.5H396V298V297.5H298V298ZM396 298H395.5V396H396H396.5V298H396ZM298 396H298.5V298H298H297.5V396H298Z" fill="#CDCDCD" mask="url(#path-12-inside-6_122_16)"/>
<mask id="path-14-inside-7_122_16" fill="white">
<path d="M396 198H496V298H396V198Z"/>
</mask>
<path d="M396 198V197.5H395.5V198H396ZM396 298H395.5V298.5H396V298ZM396 198V198.5H496V198V197.5H396V198ZM496 298V297.5H396V298V298.5H496V298ZM396 298H396.5V198H396H395.5V298H396Z" fill="#CDCDCD" mask="url(#path-14-inside-7_122_16)"/>
<mask id="path-16-inside-8_122_16" fill="white">
<path d="M396 100H496V198H396V100Z"/>
</mask>
<path d="M396 100V100.5H496V100V99.5H396V100Z" fill="#CDCDCD" mask="url(#path-16-inside-8_122_16)"/>
<mask id="path-18-inside-9_122_16" fill="white">
<path d="M298 0H396V100H298V0Z"/>
</mask>
<path d="M396 0H395.5V100H396H396.5V0H396Z" fill="#CDCDCD" mask="url(#path-18-inside-9_122_16)"/>
<mask id="path-20-inside-10_122_16" fill="white">
<path d="M198 0H298V100H198V0Z"/>
</mask>
<path d="M298 100V100.5H298.5V100H298ZM198 100H197.5V100.5H198V100ZM298 0H297.5V100H298H298.5V0H298ZM298 100V99.5H198V100V100.5H298V100ZM198 100H198.5V0H198H197.5V100H198Z" fill="#CDCDCD" mask="url(#path-20-inside-10_122_16)"/>
<mask id="path-22-inside-11_122_16" fill="white">
<path d="M100 0H198V100H100V0Z"/>
</mask>
<path d="M100 100H99.5V100.5H100V100ZM198 100V99.5H100V100V100.5H198V100ZM100 100H100.5V0H100H99.5V100H100Z" fill="#CDCDCD" mask="url(#path-22-inside-11_122_16)"/>
<mask id="path-24-inside-12_122_16" fill="white">
<path d="M198 198H298V298H198V198Z"/>
</mask>
<path d="M298 198H298.5V197.5H298V198ZM298 298V298.5H298.5V298H298ZM198 198V198.5H298V198V197.5H198V198ZM298 198H297.5V298H298H298.5V198H298ZM298 298V297.5H198V298V298.5H298V298Z" fill="#CDCDCD" mask="url(#path-24-inside-12_122_16)"/>
<rect x="7.5" y="76.5" width="318" height="135" rx="9.5" fill="white"/>
<rect x="7.5" y="76.5" width="318" height="135" rx="9.5" stroke="#B3B3B3"/>
<path fill-rule="evenodd" clip-rule="evenodd" d="M41 122C47.6274 122 53 116.627 53 110C53 103.373 47.6274 98 41 98C34.3726 98 29 103.373 29 110C29 116.627 34.3726 122 41 122ZM46.7848 107.287C47.1503 106.784 47.0392 106.081 46.5367 105.715C46.0342 105.35 45.3306 105.461 44.9652 105.963L39.7395 113.149L36.9205 110.33C36.4812 109.89 35.7688 109.89 35.3295 110.33C34.8902 110.769 34.8902 111.481 35.3295 111.92L39.0795 115.67C39.3122 115.903 39.635 116.022 39.963 115.997C40.291 115.971 40.5913 115.803 40.7848 115.537L46.7848 107.287Z" fill="#3CC1A7"/>
<path d="M73.02 111.1H77.86L75.48 104.44H75.44L73.02 111.1ZM74.44 102.72H76.54L82.12 117H80.02L78.46 112.7H72.42L70.82 117H68.88L74.44 102.72ZM83.2488 106.66H84.8488V108.3H84.8888C85.5954 107.047 86.7154 106.42 88.2488 106.42C88.9288 106.42 89.4954 106.513 89.9488 106.7C90.4021 106.887 90.7688 107.147 91.0488 107.48C91.3288 107.813 91.5221 108.213 91.6288 108.68C91.7488 109.133 91.8088 109.64 91.8088 110.2V117H90.1088V110C90.1088 109.36 89.9221 108.853 89.5488 108.48C89.1754 108.107 88.6621 107.92 88.0088 107.92C87.4888 107.92 87.0354 108 86.6488 108.16C86.2754 108.32 85.9621 108.547 85.7088 108.84C85.4554 109.133 85.2621 109.48 85.1288 109.88C85.0088 110.267 84.9488 110.693 84.9488 111.16V117H83.2488V106.66ZM103.522 116.96C103.229 117.133 102.822 117.22 102.302 117.22C101.862 117.22 101.509 117.1 101.242 116.86C100.989 116.607 100.862 116.2 100.862 115.64C100.395 116.2 99.8487 116.607 99.222 116.86C98.6087 117.1 97.942 117.22 97.222 117.22C96.7554 117.22 96.3087 117.167 95.882 117.06C95.4687 116.953 95.1087 116.787 94.802 116.56C94.4954 116.333 94.2487 116.04 94.062 115.68C93.8887 115.307 93.802 114.86 93.802 114.34C93.802 113.753 93.902 113.273 94.102 112.9C94.302 112.527 94.562 112.227 94.882 112C95.2154 111.76 95.5887 111.58 96.002 111.46C96.4287 111.34 96.862 111.24 97.302 111.16C97.7687 111.067 98.2087 111 98.622 110.96C99.0487 110.907 99.422 110.84 99.742 110.76C100.062 110.667 100.315 110.54 100.502 110.38C100.689 110.207 100.782 109.96 100.782 109.64C100.782 109.267 100.709 108.967 100.562 108.74C100.429 108.513 100.249 108.34 100.022 108.22C99.8087 108.1 99.562 108.02 99.282 107.98C99.0154 107.94 98.7487 107.92 98.482 107.92C97.762 107.92 97.162 108.06 96.682 108.34C96.202 108.607 95.942 109.12 95.902 109.88H94.202C94.2287 109.24 94.362 108.7 94.602 108.26C94.842 107.82 95.162 107.467 95.562 107.2C95.962 106.92 96.4154 106.72 96.922 106.6C97.442 106.48 97.9954 106.42 98.582 106.42C99.0487 106.42 99.5087 106.453 99.962 106.52C100.429 106.587 100.849 106.727 101.222 106.94C101.595 107.14 101.895 107.427 102.122 107.8C102.349 108.173 102.462 108.66 102.462 109.26V114.58C102.462 114.98 102.482 115.273 102.522 115.46C102.575 115.647 102.735 115.74 103.002 115.74C103.149 115.74 103.322 115.707 103.522 115.64V116.96ZM100.762 111.66C100.549 111.82 100.269 111.94 99.922 112.02C99.5754 112.087 99.2087 112.147 98.822 112.2C98.4487 112.24 98.0687 112.293 97.682 112.36C97.2954 112.413 96.9487 112.507 96.642 112.64C96.3354 112.773 96.082 112.967 95.882 113.22C95.6954 113.46 95.602 113.793 95.602 114.22C95.602 114.5 95.6554 114.74 95.762 114.94C95.882 115.127 96.0287 115.28 96.202 115.4C96.3887 115.52 96.602 115.607 96.842 115.66C97.082 115.713 97.3354 115.74 97.602 115.74C98.162 115.74 98.642 115.667 99.042 115.52C99.442 115.36 99.7687 115.167 100.022 114.94C100.275 114.7 100.462 114.447 100.582 114.18C100.702 113.9 100.762 113.64 100.762 113.4V111.66ZM105.204 102.72H106.904V117H105.204V102.72ZM113.598 118.38C113.398 118.887 113.198 119.313 112.998 119.66C112.811 120.007 112.598 120.287 112.358 120.5C112.131 120.727 111.871 120.887 111.578 120.98C111.298 121.087 110.971 121.14 110.598 121.14C110.398 121.14 110.198 121.127 109.998 121.1C109.798 121.073 109.604 121.027 109.418 120.96V119.4C109.564 119.467 109.731 119.52 109.918 119.56C110.118 119.613 110.284 119.64 110.418 119.64C110.764 119.64 111.051 119.553 111.278 119.38C111.518 119.22 111.698 118.987 111.818 118.68L112.518 116.94L108.418 106.66H110.338L113.358 115.12H113.398L116.298 106.66H118.098L113.598 118.38ZM120.578 113.74C120.591 114.113 120.678 114.433 120.838 114.7C120.998 114.953 121.204 115.16 121.458 115.32C121.724 115.467 122.018 115.573 122.338 115.64C122.671 115.707 123.011 115.74 123.358 115.74C123.624 115.74 123.904 115.72 124.198 115.68C124.491 115.64 124.758 115.567 124.998 115.46C125.251 115.353 125.458 115.2 125.618 115C125.778 114.787 125.858 114.52 125.858 114.2C125.858 113.76 125.691 113.427 125.358 113.2C125.024 112.973 124.604 112.793 124.098 112.66C123.604 112.513 123.064 112.387 122.478 112.28C121.891 112.16 121.344 112 120.838 111.8C120.344 111.587 119.931 111.293 119.598 110.92C119.264 110.547 119.098 110.027 119.098 109.36C119.098 108.84 119.211 108.393 119.438 108.02C119.678 107.647 119.978 107.347 120.338 107.12C120.711 106.88 121.124 106.707 121.578 106.6C122.044 106.48 122.504 106.42 122.958 106.42C123.544 106.42 124.084 106.473 124.578 106.58C125.071 106.673 125.504 106.847 125.878 107.1C126.264 107.34 126.571 107.673 126.798 108.1C127.024 108.513 127.158 109.033 127.198 109.66H125.498C125.471 109.327 125.384 109.053 125.238 108.84C125.091 108.613 124.904 108.433 124.678 108.3C124.451 108.167 124.198 108.073 123.918 108.02C123.651 107.953 123.378 107.92 123.098 107.92C122.844 107.92 122.584 107.94 122.318 107.98C122.064 108.02 121.831 108.093 121.618 108.2C121.404 108.293 121.231 108.427 121.098 108.6C120.964 108.76 120.898 108.973 120.898 109.24C120.898 109.533 120.998 109.78 121.198 109.98C121.411 110.167 121.678 110.327 121.998 110.46C122.318 110.58 122.678 110.687 123.078 110.78C123.478 110.86 123.878 110.947 124.278 111.04C124.704 111.133 125.118 111.247 125.518 111.38C125.931 111.513 126.291 111.693 126.598 111.92C126.918 112.133 127.171 112.407 127.358 112.74C127.558 113.073 127.658 113.487 127.658 113.98C127.658 114.607 127.524 115.127 127.258 115.54C127.004 115.953 126.664 116.287 126.238 116.54C125.824 116.793 125.351 116.967 124.818 117.06C124.298 117.167 123.778 117.22 123.258 117.22C122.684 117.22 122.138 117.16 121.618 117.04C121.098 116.92 120.638 116.727 120.238 116.46C119.838 116.18 119.518 115.82 119.278 115.38C119.038 114.927 118.904 114.38 118.878 113.74H120.578ZM131.338 104.8H129.638V102.72H131.338V104.8ZM129.638 106.66H131.338V117H129.638V106.66ZM135.011 113.74C135.025 114.113 135.111 114.433 135.271 114.7C135.431 114.953 135.638 115.16 135.891 115.32C136.158 115.467 136.451 115.573 136.771 115.64C137.105 115.707 137.445 115.74 137.791 115.74C138.058 115.74 138.338 115.72 138.631 115.68C138.925 115.64 139.191 115.567 139.431 115.46C139.685 115.353 139.891 115.2 140.051 115C140.211 114.787 140.291 114.52 140.291 114.2C140.291 113.76 140.125 113.427 139.791 113.2C139.458 112.973 139.038 112.793 138.531 112.66C138.038 112.513 137.498 112.387 136.911 112.28C136.325 112.16 135.778 112 135.271 111.8C134.778 111.587 134.365 111.293 134.031 110.92C133.698 110.547 133.531 110.027 133.531 109.36C133.531 108.84 133.645 108.393 133.871 108.02C134.111 107.647 134.411 107.347 134.771 107.12C135.145 106.88 135.558 106.707 136.011 106.6C136.478 106.48 136.938 106.42 137.391 106.42C137.978 106.42 138.518 106.473 139.011 106.58C139.505 106.673 139.938 106.847 140.311 107.1C140.698 107.34 141.005 107.673 141.231 108.1C141.458 108.513 141.591 109.033 141.631 109.66H139.931C139.905 109.327 139.818 109.053 139.671 108.84C139.525 108.613 139.338 108.433 139.111 108.3C138.885 108.167 138.631 108.073 138.351 108.02C138.085 107.953 137.811 107.92 137.531 107.92C137.278 107.92 137.018 107.94 136.751 107.98C136.498 108.02 136.265 108.093 136.051 108.2C135.838 108.293 135.665 108.427 135.531 108.6C135.398 108.76 135.331 108.973 135.331 109.24C135.331 109.533 135.431 109.78 135.631 109.98C135.845 110.167 136.111 110.327 136.431 110.46C136.751 110.58 137.111 110.687 137.511 110.78C137.911 110.86 138.311 110.947 138.711 111.04C139.138 111.133 139.551 111.247 139.951 111.38C140.365 111.513 140.725 111.693 141.031 111.92C141.351 112.133 141.605 112.407 141.791 112.74C141.991 113.073 142.091 113.487 142.091 113.98C142.091 114.607 141.958 115.127 141.691 115.54C141.438 115.953 141.098 116.287 140.671 116.54C140.258 116.793 139.785 116.967 139.251 117.06C138.731 117.167 138.211 117.22 137.691 117.22C137.118 117.22 136.571 117.16 136.051 117.04C135.531 116.92 135.071 116.727 134.671 116.46C134.271 116.18 133.951 115.82 133.711 115.38C133.471 114.927 133.338 114.38 133.311 113.74H135.011Z" fill="#4D4A4A"/>
<path fill-rule="evenodd" clip-rule="evenodd" d="M52 138C52 136.359 50.7329 135.009 49.1072 134.841C48.9365 133.244 47.5615 132 45.8906 132H43.7343C42.0634 132 40.6884 133.244 40.5177 134.841C39.2598 134.971 38.2166 135.809 37.809 136.941H41.9374C43.9222 136.941 45.5312 138.521 45.5312 140.471V150.353H48.7656C50.5519 150.353 52 148.931 52 147.176V138ZM43.7343 134.118C43.1389 134.118 42.6562 134.592 42.6562 135.176V135.529H46.9687V135.176C46.9687 134.592 46.486 134.118 45.8906 134.118H43.7343Z" fill="#3CC1A7"/>
<path fill-rule="evenodd" clip-rule="evenodd" d="M30.4375 139.059C29.6436 139.059 29 139.691 29 140.471V154.588C29 155.368 29.6436 156 30.4375 156H41.9376C42.7315 156 43.3751 155.368 43.3751 154.588V140.471C43.3751 139.691 42.7315 139.059 41.9376 139.059H30.4375ZM40.319 144.94C40.6493 144.454 40.5154 143.796 40.02 143.472C39.5245 143.148 38.8552 143.279 38.5249 143.766L34.9418 149.044L33.7155 147.84C33.2945 147.426 32.6118 147.426 32.1908 147.84C31.7698 148.253 31.7698 148.923 32.1908 149.337L34.3471 151.455C34.5755 151.679 34.8942 151.791 35.2156 151.76C35.5371 151.728 35.8273 151.557 36.0065 151.293L40.319 144.94Z" fill="#3CC1A7"/>
<path d="M71.46 143.56H75.18C76.26 143.573 77.0467 143.353 77.54 142.9C78.0467 142.447 78.3 141.793 78.3 140.94C78.3 140.087 78.0467 139.44 77.54 139C77.0467 138.547 76.26 138.32 75.18 138.32H71.46V143.56ZM69.56 136.72H75.82C77.26 136.72 78.3467 137.093 79.08 137.84C79.8267 138.573 80.2 139.607 80.2 140.94C80.2 142.273 79.8267 143.313 79.08 144.06C78.3467 144.807 77.26 145.173 75.82 145.16H71.46V151H69.56V136.72ZM82.3488 136.72H84.0488V151H82.3488V136.72ZM95.8423 150.96C95.549 151.133 95.1423 151.22 94.6223 151.22C94.1823 151.22 93.829 151.1 93.5623 150.86C93.309 150.607 93.1823 150.2 93.1823 149.64C92.7157 150.2 92.169 150.607 91.5423 150.86C90.929 151.1 90.2623 151.22 89.5423 151.22C89.0757 151.22 88.629 151.167 88.2023 151.06C87.789 150.953 87.429 150.787 87.1223 150.56C86.8157 150.333 86.569 150.04 86.3823 149.68C86.209 149.307 86.1223 148.86 86.1223 148.34C86.1223 147.753 86.2223 147.273 86.4223 146.9C86.6223 146.527 86.8823 146.227 87.2023 146C87.5357 145.76 87.909 145.58 88.3223 145.46C88.749 145.34 89.1823 145.24 89.6223 145.16C90.089 145.067 90.529 145 90.9423 144.96C91.369 144.907 91.7423 144.84 92.0623 144.76C92.3823 144.667 92.6357 144.54 92.8223 144.38C93.009 144.207 93.1023 143.96 93.1023 143.64C93.1023 143.267 93.029 142.967 92.8823 142.74C92.749 142.513 92.569 142.34 92.3423 142.22C92.129 142.1 91.8823 142.02 91.6023 141.98C91.3357 141.94 91.069 141.92 90.8023 141.92C90.0823 141.92 89.4823 142.06 89.0023 142.34C88.5223 142.607 88.2623 143.12 88.2223 143.88H86.5223C86.549 143.24 86.6823 142.7 86.9223 142.26C87.1623 141.82 87.4823 141.467 87.8823 141.2C88.2823 140.92 88.7357 140.72 89.2423 140.6C89.7623 140.48 90.3157 140.42 90.9023 140.42C91.369 140.42 91.829 140.453 92.2823 140.52C92.749 140.587 93.169 140.727 93.5423 140.94C93.9157 141.14 94.2157 141.427 94.4423 141.8C94.669 142.173 94.7823 142.66 94.7823 143.26V148.58C94.7823 148.98 94.8023 149.273 94.8423 149.46C94.8957 149.647 95.0557 149.74 95.3223 149.74C95.469 149.74 95.6423 149.707 95.8423 149.64V150.96ZM93.0823 145.66C92.869 145.82 92.589 145.94 92.2423 146.02C91.8957 146.087 91.529 146.147 91.1423 146.2C90.769 146.24 90.389 146.293 90.0023 146.36C89.6157 146.413 89.269 146.507 88.9623 146.64C88.6557 146.773 88.4023 146.967 88.2023 147.22C88.0157 147.46 87.9223 147.793 87.9223 148.22C87.9223 148.5 87.9757 148.74 88.0823 148.94C88.2023 149.127 88.349 149.28 88.5223 149.4C88.709 149.52 88.9223 149.607 89.1623 149.66C89.4023 149.713 89.6557 149.74 89.9223 149.74C90.4823 149.74 90.9623 149.667 91.3623 149.52C91.7623 149.36 92.089 149.167 92.3423 148.94C92.5957 148.7 92.7823 148.447 92.9023 148.18C93.0223 147.9 93.0823 147.64 93.0823 147.4V145.66ZM97.4245 140.66H99.0245V142.3H99.0645C99.7712 141.047 100.891 140.42 102.425 140.42C103.105 140.42 103.671 140.513 104.125 140.7C104.578 140.887 104.945 141.147 105.225 141.48C105.505 141.813 105.698 142.213 105.805 142.68C105.925 143.133 105.985 143.64 105.985 144.2V151H104.285V144C104.285 143.36 104.098 142.853 103.725 142.48C103.351 142.107 102.838 141.92 102.185 141.92C101.665 141.92 101.211 142 100.825 142.16C100.451 142.32 100.138 142.547 99.8845 142.84C99.6312 143.133 99.4379 143.48 99.3045 143.88C99.1845 144.267 99.1245 144.693 99.1245 145.16V151H97.4245V140.66ZM108.538 140.66H110.138V142.3H110.178C110.884 141.047 112.004 140.42 113.538 140.42C114.218 140.42 114.784 140.513 115.238 140.7C115.691 140.887 116.058 141.147 116.338 141.48C116.618 141.813 116.811 142.213 116.918 142.68C117.038 143.133 117.098 143.64 117.098 144.2V151H115.398V144C115.398 143.36 115.211 142.853 114.838 142.48C114.464 142.107 113.951 141.92 113.298 141.92C112.778 141.92 112.324 142 111.938 142.16C111.564 142.32 111.251 142.547 110.998 142.84C110.744 143.133 110.551 143.48 110.418 143.88C110.298 144.267 110.238 144.693 110.238 145.16V151H108.538V140.66ZM121.451 138.8H119.751V136.72H121.451V138.8ZM119.751 140.66H121.451V151H119.751V140.66ZM124.085 140.66H125.685V142.3H125.725C126.431 141.047 127.551 140.42 129.085 140.42C129.765 140.42 130.331 140.513 130.785 140.7C131.238 140.887 131.605 141.147 131.885 141.48C132.165 141.813 132.358 142.213 132.465 142.68C132.585 143.133 132.645 143.64 132.645 144.2V151H130.945V144C130.945 143.36 130.758 142.853 130.385 142.48C130.011 142.107 129.498 141.92 128.845 141.92C128.325 141.92 127.871 142 127.485 142.16C127.111 142.32 126.798 142.547 126.545 142.84C126.291 143.133 126.098 143.48 125.965 143.88C125.845 144.267 125.785 144.693 125.785 145.16V151H124.085V140.66ZM144.118 150.12C144.118 151.813 143.731 153.08 142.958 153.92C142.185 154.76 140.971 155.18 139.318 155.18C138.838 155.18 138.345 155.127 137.838 155.02C137.345 154.913 136.891 154.74 136.478 154.5C136.078 154.26 135.745 153.947 135.478 153.56C135.211 153.173 135.065 152.7 135.038 152.14H136.738C136.751 152.447 136.845 152.707 137.018 152.92C137.205 153.133 137.425 153.307 137.678 153.44C137.945 153.573 138.231 153.667 138.538 153.72C138.845 153.787 139.138 153.82 139.418 153.82C139.978 153.82 140.451 153.72 140.838 153.52C141.225 153.333 141.545 153.067 141.798 152.72C142.051 152.387 142.231 151.98 142.338 151.5C142.458 151.02 142.518 150.493 142.518 149.92V149.24H142.478C142.185 149.88 141.738 150.353 141.138 150.66C140.551 150.953 139.925 151.1 139.258 151.1C138.485 151.1 137.811 150.96 137.238 150.68C136.665 150.4 136.185 150.027 135.798 149.56C135.411 149.08 135.118 148.527 134.918 147.9C134.731 147.26 134.638 146.587 134.638 145.88C134.638 145.267 134.718 144.64 134.878 144C135.038 143.347 135.305 142.76 135.678 142.24C136.051 141.707 136.545 141.273 137.158 140.94C137.771 140.593 138.525 140.42 139.418 140.42C140.071 140.42 140.671 140.567 141.218 140.86C141.765 141.14 142.191 141.567 142.498 142.14H142.518V140.66H144.118V150.12ZM139.358 149.62C139.918 149.62 140.391 149.507 140.778 149.28C141.178 149.04 141.498 148.733 141.738 148.36C141.978 147.973 142.151 147.54 142.258 147.06C142.378 146.58 142.438 146.1 142.438 145.62C142.438 145.167 142.385 144.72 142.278 144.28C142.171 143.84 141.998 143.447 141.758 143.1C141.531 142.74 141.231 142.453 140.858 142.24C140.485 142.027 140.031 141.92 139.498 141.92C138.951 141.92 138.485 142.027 138.098 142.24C137.711 142.44 137.391 142.713 137.138 143.06C136.898 143.407 136.718 143.807 136.598 144.26C136.491 144.713 136.438 145.187 136.438 145.68C136.438 146.147 136.485 146.613 136.578 147.08C136.671 147.547 136.831 147.973 137.058 148.36C137.285 148.733 137.585 149.04 137.958 149.28C138.331 149.507 138.798 149.62 139.358 149.62Z" fill="#4D4A4A"/>
<path d="M49 184.667L48.9873 184.941C48.7192 187.759 44.3501 190 39 190C33.6499 190 29.2808 187.759 29.0127 184.941L29 184.667V182.236C29.5652 182.729 30.2038 183.155 30.8662 183.508C33.0547 184.675 35.9349 185.333 39 185.333C42.0651 185.333 44.9453 184.675 47.1338 183.508C47.7962 183.155 48.4348 182.729 49 182.236V184.667ZM49 178L48.9873 178.274C48.7195 181.092 44.3503 183.333 39 183.333C33.4772 183.333 29 180.946 29 178V175.569C29.5653 176.062 30.2037 176.487 30.8662 176.841C33.0547 178.008 35.9349 178.667 39 178.667C42.0651 178.667 44.9453 178.008 47.1338 176.841C47.7963 176.487 48.4347 176.062 49 175.569V178ZM39 166C44.5226 166 48.9997 168.388 49 171.333L48.9873 171.607C48.7198 174.426 44.3505 176.667 39 176.667C33.6495 176.667 29.2802 174.426 29.0127 171.607L29 171.333C29.0003 168.388 33.4774 166 39 166Z" fill="#3CC1A7"/>
<path d="M74.82 174.9C74.7133 173.873 74.34 173.133 73.7 172.68C73.0733 172.213 72.2667 171.98 71.28 171.98C70.88 171.98 70.4867 172.02 70.1 172.1C69.7133 172.18 69.3667 172.313 69.06 172.5C68.7667 172.687 68.5267 172.94 68.34 173.26C68.1667 173.567 68.08 173.953 68.08 174.42C68.08 174.86 68.2067 175.22 68.46 175.5C68.7267 175.767 69.0733 175.987 69.5 176.16C69.94 176.333 70.4333 176.48 70.98 176.6C71.5267 176.707 72.08 176.827 72.64 176.96C73.2133 177.093 73.7733 177.253 74.32 177.44C74.8667 177.613 75.3533 177.853 75.78 178.16C76.22 178.467 76.5667 178.853 76.82 179.32C77.0867 179.787 77.22 180.373 77.22 181.08C77.22 181.84 77.0467 182.493 76.7 183.04C76.3667 183.573 75.9333 184.013 75.4 184.36C74.8667 184.693 74.2667 184.933 73.6 185.08C72.9467 185.24 72.2933 185.32 71.64 185.32C70.84 185.32 70.08 185.22 69.36 185.02C68.6533 184.82 68.0267 184.52 67.48 184.12C66.9467 183.707 66.52 183.187 66.2 182.56C65.8933 181.92 65.74 181.167 65.74 180.3H67.54C67.54 180.9 67.6533 181.42 67.88 181.86C68.12 182.287 68.4267 182.64 68.8 182.92C69.1867 183.2 69.6333 183.407 70.14 183.54C70.6467 183.673 71.1667 183.74 71.7 183.74C72.1267 183.74 72.5533 183.7 72.98 183.62C73.42 183.54 73.8133 183.407 74.16 183.22C74.5067 183.02 74.7867 182.753 75 182.42C75.2133 182.087 75.32 181.66 75.32 181.14C75.32 180.647 75.1867 180.247 74.92 179.94C74.6667 179.633 74.32 179.387 73.88 179.2C73.4533 179 72.9667 178.84 72.42 178.72C71.8733 178.6 71.3133 178.48 70.74 178.36C70.18 178.227 69.6267 178.08 69.08 177.92C68.5333 177.747 68.04 177.527 67.6 177.26C67.1733 176.98 66.8267 176.627 66.56 176.2C66.3067 175.76 66.18 175.213 66.18 174.56C66.18 173.84 66.3267 173.22 66.62 172.7C66.9133 172.167 67.3 171.733 67.78 171.4C68.2733 171.053 68.8267 170.8 69.44 170.64C70.0667 170.467 70.7067 170.38 71.36 170.38C72.0933 170.38 72.7733 170.467 73.4 170.64C74.0267 170.813 74.5733 171.087 75.04 171.46C75.52 171.833 75.8933 172.307 76.16 172.88C76.44 173.44 76.5933 174.113 76.62 174.9H74.82ZM83.3088 186.38C83.1088 186.887 82.9088 187.313 82.7088 187.66C82.5221 188.007 82.3088 188.287 82.0688 188.5C81.8421 188.727 81.5821 188.887 81.2888 188.98C81.0088 189.087 80.6821 189.14 80.3088 189.14C80.1088 189.14 79.9088 189.127 79.7088 189.1C79.5088 189.073 79.3154 189.027 79.1288 188.96V187.4C79.2754 187.467 79.4421 187.52 79.6288 187.56C79.8288 187.613 79.9954 187.64 80.1288 187.64C80.4754 187.64 80.7621 187.553 80.9888 187.38C81.2288 187.22 81.4088 186.987 81.5288 186.68L82.2288 184.94L78.1288 174.66H80.0488L83.0688 183.12H83.1087L86.0088 174.66H87.8088L83.3088 186.38ZM90.2888 181.74C90.3021 182.113 90.3888 182.433 90.5488 182.7C90.7088 182.953 90.9154 183.16 91.1688 183.32C91.4354 183.467 91.7288 183.573 92.0488 183.64C92.3821 183.707 92.7221 183.74 93.0688 183.74C93.3354 183.74 93.6154 183.72 93.9088 183.68C94.2021 183.64 94.4688 183.567 94.7088 183.46C94.9621 183.353 95.1688 183.2 95.3288 183C95.4888 182.787 95.5688 182.52 95.5688 182.2C95.5688 181.76 95.4021 181.427 95.0688 181.2C94.7354 180.973 94.3154 180.793 93.8088 180.66C93.3154 180.513 92.7754 180.387 92.1888 180.28C91.6021 180.16 91.0554 180 90.5488 179.8C90.0554 179.587 89.6421 179.293 89.3088 178.92C88.9754 178.547 88.8088 178.027 88.8088 177.36C88.8088 176.84 88.9221 176.393 89.1488 176.02C89.3888 175.647 89.6888 175.347 90.0488 175.12C90.4221 174.88 90.8354 174.707 91.2888 174.6C91.7554 174.48 92.2154 174.42 92.6688 174.42C93.2554 174.42 93.7954 174.473 94.2888 174.58C94.7821 174.673 95.2154 174.847 95.5888 175.1C95.9754 175.34 96.2821 175.673 96.5088 176.1C96.7354 176.513 96.8688 177.033 96.9088 177.66H95.2088C95.1821 177.327 95.0954 177.053 94.9488 176.84C94.8021 176.613 94.6154 176.433 94.3888 176.3C94.1621 176.167 93.9088 176.073 93.6288 176.02C93.3621 175.953 93.0888 175.92 92.8088 175.92C92.5554 175.92 92.2954 175.94 92.0288 175.98C91.7754 176.02 91.5421 176.093 91.3288 176.2C91.1154 176.293 90.9421 176.427 90.8088 176.6C90.6754 176.76 90.6087 176.973 90.6087 177.24C90.6087 177.533 90.7087 177.78 90.9087 177.98C91.1221 178.167 91.3888 178.327 91.7088 178.46C92.0288 178.58 92.3888 178.687 92.7888 178.78C93.1888 178.86 93.5888 178.947 93.9888 179.04C94.4154 179.133 94.8288 179.247 95.2288 179.38C95.6421 179.513 96.0021 179.693 96.3088 179.92C96.6288 180.133 96.8821 180.407 97.0688 180.74C97.2688 181.073 97.3688 181.487 97.3688 181.98C97.3688 182.607 97.2354 183.127 96.9688 183.54C96.7154 183.953 96.3754 184.287 95.9488 184.54C95.5354 184.793 95.0621 184.967 94.5288 185.06C94.0088 185.167 93.4888 185.22 92.9688 185.22C92.3954 185.22 91.8488 185.16 91.3288 185.04C90.8088 184.92 90.3488 184.727 89.9488 184.46C89.5488 184.18 89.2288 183.82 88.9888 183.38C88.7488 182.927 88.6154 182.38 88.5888 181.74H90.2888ZM101.609 174.66H103.669V176.16H101.609V182.58C101.609 182.78 101.622 182.94 101.649 183.06C101.689 183.18 101.755 183.273 101.849 183.34C101.942 183.407 102.069 183.453 102.229 183.48C102.402 183.493 102.622 183.5 102.889 183.5H103.669V185H102.369C101.929 185 101.549 184.973 101.229 184.92C100.922 184.853 100.669 184.74 100.469 184.58C100.282 184.42 100.142 184.193 100.049 183.9C99.9554 183.607 99.9088 183.22 99.9088 182.74V176.16H98.1488V174.66H99.9088V171.56H101.609V174.66ZM112.737 178.84C112.711 178.44 112.617 178.06 112.457 177.7C112.311 177.34 112.104 177.033 111.837 176.78C111.584 176.513 111.277 176.307 110.917 176.16C110.571 176 110.184 175.92 109.757 175.92C109.317 175.92 108.917 176 108.557 176.16C108.211 176.307 107.911 176.513 107.657 176.78C107.404 177.047 107.204 177.36 107.057 177.72C106.911 178.067 106.824 178.44 106.797 178.84H112.737ZM114.377 181.72C114.151 182.88 113.651 183.753 112.877 184.34C112.104 184.927 111.131 185.22 109.957 185.22C109.131 185.22 108.411 185.087 107.797 184.82C107.197 184.553 106.691 184.18 106.277 183.7C105.864 183.22 105.551 182.647 105.337 181.98C105.137 181.313 105.024 180.587 104.997 179.8C104.997 179.013 105.117 178.293 105.357 177.64C105.597 176.987 105.931 176.42 106.357 175.94C106.797 175.46 107.311 175.087 107.897 174.82C108.497 174.553 109.151 174.42 109.857 174.42C110.777 174.42 111.537 174.613 112.137 175C112.751 175.373 113.237 175.853 113.597 176.44C113.971 177.027 114.224 177.667 114.357 178.36C114.504 179.053 114.564 179.713 114.537 180.34H106.797C106.784 180.793 106.837 181.227 106.957 181.64C107.077 182.04 107.271 182.4 107.537 182.72C107.804 183.027 108.144 183.273 108.557 183.46C108.971 183.647 109.457 183.74 110.017 183.74C110.737 183.74 111.324 183.573 111.777 183.24C112.244 182.907 112.551 182.4 112.697 181.72H114.377ZM116.3 174.66H117.9V176.18H117.94C118.713 175.007 119.826 174.42 121.28 174.42C121.92 174.42 122.5 174.553 123.02 174.82C123.54 175.087 123.906 175.54 124.12 176.18C124.466 175.62 124.92 175.187 125.48 174.88C126.053 174.573 126.68 174.42 127.36 174.42C127.88 174.42 128.346 174.48 128.76 174.6C129.186 174.707 129.546 174.88 129.84 175.12C130.146 175.36 130.38 175.673 130.54 176.06C130.713 176.433 130.8 176.887 130.8 177.42V185H129.1V178.22C129.1 177.9 129.073 177.6 129.02 177.32C128.966 177.04 128.866 176.8 128.72 176.6C128.573 176.387 128.366 176.22 128.1 176.1C127.846 175.98 127.513 175.92 127.1 175.92C126.26 175.92 125.6 176.16 125.12 176.64C124.64 177.12 124.4 177.76 124.4 178.56V185H122.7V178.22C122.7 177.887 122.666 177.58 122.6 177.3C122.546 177.02 122.446 176.78 122.3 176.58C122.153 176.367 121.953 176.207 121.7 176.1C121.46 175.98 121.146 175.92 120.76 175.92C120.266 175.92 119.84 176.02 119.48 176.22C119.133 176.42 118.846 176.66 118.62 176.94C118.406 177.22 118.246 177.513 118.14 177.82C118.046 178.113 118 178.36 118 178.56V185H116.3V174.66ZM141.097 183.4H144.257C144.47 183.4 144.737 183.387 145.057 183.36C145.377 183.32 145.717 183.24 146.077 183.12C146.437 182.987 146.79 182.8 147.137 182.56C147.497 182.32 147.817 181.993 148.097 181.58C148.377 181.167 148.603 180.653 148.777 180.04C148.963 179.413 149.057 178.66 149.057 177.78C149.057 176.927 148.97 176.167 148.797 175.5C148.637 174.82 148.363 174.247 147.977 173.78C147.603 173.3 147.117 172.94 146.517 172.7C145.917 172.447 145.177 172.32 144.297 172.32H141.097V183.4ZM139.197 170.72H144.097C146.297 170.72 147.99 171.28 149.177 172.4C150.363 173.52 150.957 175.227 150.957 177.52C150.957 178.72 150.823 179.787 150.557 180.72C150.29 181.64 149.877 182.42 149.317 183.06C148.757 183.687 148.043 184.167 147.177 184.5C146.31 184.833 145.283 185 144.097 185H139.197V170.72ZM160.179 178.84C160.152 178.44 160.059 178.06 159.899 177.7C159.752 177.34 159.545 177.033 159.279 176.78C159.025 176.513 158.719 176.307 158.359 176.16C158.012 176 157.625 175.92 157.199 175.92C156.759 175.92 156.359 176 155.999 176.16C155.652 176.307 155.352 176.513 155.099 176.78C154.845 177.047 154.645 177.36 154.499 177.72C154.352 178.067 154.265 178.44 154.239 178.84H160.179ZM161.819 181.72C161.592 182.88 161.092 183.753 160.319 184.34C159.545 184.927 158.572 185.22 157.399 185.22C156.572 185.22 155.852 185.087 155.239 184.82C154.639 184.553 154.132 184.18 153.719 183.7C153.305 183.22 152.992 182.647 152.779 181.98C152.579 181.313 152.465 180.587 152.439 179.8C152.439 179.013 152.559 178.293 152.799 177.64C153.039 176.987 153.372 176.42 153.799 175.94C154.239 175.46 154.752 175.087 155.339 174.82C155.939 174.553 156.592 174.42 157.299 174.42C158.219 174.42 158.979 174.613 159.579 175C160.192 175.373 160.679 175.853 161.039 176.44C161.412 177.027 161.665 177.667 161.799 178.36C161.945 179.053 162.005 179.713 161.979 180.34H154.239C154.225 180.793 154.279 181.227 154.399 181.64C154.519 182.04 154.712 182.4 154.979 182.72C155.245 183.027 155.585 183.273 155.999 183.46C156.412 183.647 156.899 183.74 157.459 183.74C158.179 183.74 158.765 183.573 159.219 183.24C159.685 182.907 159.992 182.4 160.139 181.72H161.819ZM164.781 181.74C164.794 182.113 164.881 182.433 165.041 182.7C165.201 182.953 165.408 183.16 165.661 183.32C165.928 183.467 166.221 183.573 166.541 183.64C166.874 183.707 167.214 183.74 167.561 183.74C167.828 183.74 168.108 183.72 168.401 183.68C168.694 183.64 168.961 183.567 169.201 183.46C169.454 183.353 169.661 183.2 169.821 183C169.981 182.787 170.061 182.52 170.061 182.2C170.061 181.76 169.894 181.427 169.561 181.2C169.228 180.973 168.808 180.793 168.301 180.66C167.808 180.513 167.268 180.387 166.681 180.28C166.094 180.16 165.548 180 165.041 179.8C164.548 179.587 164.134 179.293 163.801 178.92C163.468 178.547 163.301 178.027 163.301 177.36C163.301 176.84 163.414 176.393 163.641 176.02C163.881 175.647 164.181 175.347 164.541 175.12C164.914 174.88 165.328 174.707 165.781 174.6C166.248 174.48 166.708 174.42 167.161 174.42C167.748 174.42 168.288 174.473 168.781 174.58C169.274 174.673 169.708 174.847 170.081 175.1C170.468 175.34 170.774 175.673 171.001 176.1C171.228 176.513 171.361 177.033 171.401 177.66H169.701C169.674 177.327 169.588 177.053 169.441 176.84C169.294 176.613 169.108 176.433 168.881 176.3C168.654 176.167 168.401 176.073 168.121 176.02C167.854 175.953 167.581 175.92 167.301 175.92C167.048 175.92 166.788 175.94 166.521 175.98C166.268 176.02 166.034 176.093 165.821 176.2C165.608 176.293 165.434 176.427 165.301 176.6C165.168 176.76 165.101 176.973 165.101 177.24C165.101 177.533 165.201 177.78 165.401 177.98C165.614 178.167 165.881 178.327 166.201 178.46C166.521 178.58 166.881 178.687 167.281 178.78C167.681 178.86 168.081 178.947 168.481 179.04C168.908 179.133 169.321 179.247 169.721 179.38C170.134 179.513 170.494 179.693 170.801 179.92C171.121 180.133 171.374 180.407 171.561 180.74C171.761 181.073 171.861 181.487 171.861 181.98C171.861 182.607 171.728 183.127 171.461 183.54C171.208 183.953 170.868 184.287 170.441 184.54C170.028 184.793 169.554 184.967 169.021 185.06C168.501 185.167 167.981 185.22 167.461 185.22C166.888 185.22 166.341 185.16 165.821 185.04C165.301 184.92 164.841 184.727 164.441 184.46C164.041 184.18 163.721 183.82 163.481 183.38C163.241 182.927 163.108 182.38 163.081 181.74H164.781ZM175.541 172.8H173.841V170.72H175.541V172.8ZM173.841 174.66H175.541V185H173.841V174.66ZM187.095 184.12C187.095 185.813 186.708 187.08 185.935 187.92C185.161 188.76 183.948 189.18 182.295 189.18C181.815 189.18 181.321 189.127 180.815 189.02C180.321 188.913 179.868 188.74 179.455 188.5C179.055 188.26 178.721 187.947 178.455 187.56C178.188 187.173 178.041 186.7 178.015 186.14H179.715C179.728 186.447 179.821 186.707 179.995 186.92C180.181 187.133 180.401 187.307 180.655 187.44C180.921 187.573 181.208 187.667 181.515 187.72C181.821 187.787 182.115 187.82 182.395 187.82C182.955 187.82 183.428 187.72 183.815 187.52C184.201 187.333 184.521 187.067 184.775 186.72C185.028 186.387 185.208 185.98 185.315 185.5C185.435 185.02 185.495 184.493 185.495 183.92V183.24H185.455C185.161 183.88 184.715 184.353 184.115 184.66C183.528 184.953 182.901 185.1 182.235 185.1C181.461 185.1 180.788 184.96 180.215 184.68C179.641 184.4 179.161 184.027 178.775 183.56C178.388 183.08 178.095 182.527 177.895 181.9C177.708 181.26 177.615 180.587 177.615 179.88C177.615 179.267 177.695 178.64 177.855 178C178.015 177.347 178.281 176.76 178.655 176.24C179.028 175.707 179.521 175.273 180.135 174.94C180.748 174.593 181.501 174.42 182.395 174.42C183.048 174.42 183.648 174.567 184.195 174.86C184.741 175.14 185.168 175.567 185.475 176.14H185.495V174.66H187.095V184.12ZM182.335 183.62C182.895 183.62 183.368 183.507 183.755 183.28C184.155 183.04 184.475 182.733 184.715 182.36C184.955 181.973 185.128 181.54 185.235 181.06C185.355 180.58 185.415 180.1 185.415 179.62C185.415 179.167 185.361 178.72 185.255 178.28C185.148 177.84 184.975 177.447 184.735 177.1C184.508 176.74 184.208 176.453 183.835 176.24C183.461 176.027 183.008 175.92 182.475 175.92C181.928 175.92 181.461 176.027 181.075 176.24C180.688 176.44 180.368 176.713 180.115 177.06C179.875 177.407 179.695 177.807 179.575 178.26C179.468 178.713 179.415 179.187 179.415 179.68C179.415 180.147 179.461 180.613 179.555 181.08C179.648 181.547 179.808 181.973 180.035 182.36C180.261 182.733 180.561 183.04 180.935 183.28C181.308 183.507 181.775 183.62 182.335 183.62ZM189.659 174.66H191.259V176.3H191.299C192.006 175.047 193.126 174.42 194.659 174.42C195.339 174.42 195.906 174.513 196.359 174.7C196.812 174.887 197.179 175.147 197.459 175.48C197.739 175.813 197.932 176.213 198.039 176.68C198.159 177.133 198.219 177.64 198.219 178.2V185H196.519V178C196.519 177.36 196.332 176.853 195.959 176.48C195.586 176.107 195.072 175.92 194.419 175.92C193.899 175.92 193.446 176 193.059 176.16C192.686 176.32 192.372 176.547 192.119 176.84C191.866 177.133 191.672 177.48 191.539 177.88C191.419 178.267 191.359 178.693 191.359 179.16V185H189.659V174.66Z" fill="#4D4A4A"/>
<rect x="255.5" y="242.5" width="318" height="135.82" rx="9.5" fill="white"/>
<rect x="255.5" y="242.5" width="318" height="135.82" rx="9.5" stroke="#B3B3B3"/>
<path fill-rule="evenodd" clip-rule="evenodd" d="M280.375 264C278.511 264 277 265.511 277 267.375V284.625C277 286.489 278.511 288 280.375 288H297.625C299.489 288 301 286.489 301 284.625V267.375C301 265.511 299.489 264 297.625 264H280.375ZM286.42 273.42C286.86 272.981 286.86 272.269 286.42 271.83C285.981 271.39 285.269 271.39 284.83 271.83L281.455 275.205C281.015 275.644 281.015 276.356 281.455 276.795L284.83 280.17C285.269 280.61 285.981 280.61 286.42 280.17C286.86 279.731 286.86 279.019 286.42 278.58L283.841 276L286.42 273.42ZM293.17 271.83C292.731 271.39 292.019 271.39 291.58 271.83C291.14 272.269 291.14 272.981 291.58 273.42L294.159 276L291.58 278.58C291.14 279.019 291.14 279.731 291.58 280.17C292.019 280.61 292.731 280.61 293.17 280.17L296.545 276.795C296.985 276.356 296.985 275.644 296.545 275.205L293.17 271.83Z" fill="#3CC1A7"/>
<path d="M318.64 268.72H320.54V283H318.64V268.72ZM323.456 272.66H325.056V274.18H325.096C325.869 273.007 326.982 272.42 328.436 272.42C329.076 272.42 329.656 272.553 330.176 272.82C330.696 273.087 331.062 273.54 331.276 274.18C331.622 273.62 332.076 273.187 332.636 272.88C333.209 272.573 333.836 272.42 334.516 272.42C335.036 272.42 335.502 272.48 335.916 272.6C336.342 272.707 336.702 272.88 336.996 273.12C337.302 273.36 337.536 273.673 337.696 274.06C337.869 274.433 337.956 274.887 337.956 275.42V283H336.256V276.22C336.256 275.9 336.229 275.6 336.176 275.32C336.122 275.04 336.022 274.8 335.876 274.6C335.729 274.387 335.522 274.22 335.256 274.1C335.002 273.98 334.669 273.92 334.256 273.92C333.416 273.92 332.756 274.16 332.276 274.64C331.796 275.12 331.556 275.76 331.556 276.56V283H329.856V276.22C329.856 275.887 329.822 275.58 329.756 275.3C329.702 275.02 329.602 274.78 329.456 274.58C329.309 274.367 329.109 274.207 328.856 274.1C328.616 273.98 328.302 273.92 327.916 273.92C327.422 273.92 326.996 274.02 326.636 274.22C326.289 274.42 326.002 274.66 325.776 274.94C325.562 275.22 325.402 275.513 325.296 275.82C325.202 276.113 325.156 276.36 325.156 276.56V283H323.456V272.66ZM340.567 272.66H342.267V274.06H342.307C342.587 273.487 343.027 273.073 343.627 272.82C344.227 272.553 344.887 272.42 345.607 272.42C346.407 272.42 347.1 272.567 347.687 272.86C348.287 273.153 348.78 273.553 349.167 274.06C349.567 274.553 349.867 275.127 350.067 275.78C350.267 276.433 350.367 277.127 350.367 277.86C350.367 278.593 350.267 279.287 350.067 279.94C349.88 280.593 349.587 281.167 349.187 281.66C348.8 282.14 348.307 282.52 347.707 282.8C347.12 283.08 346.433 283.22 345.647 283.22C345.393 283.22 345.107 283.193 344.787 283.14C344.48 283.087 344.173 283 343.867 282.88C343.56 282.76 343.267 282.6 342.987 282.4C342.72 282.187 342.493 281.927 342.307 281.62H342.267V286.94H340.567V272.66ZM348.567 277.74C348.567 277.26 348.5 276.793 348.367 276.34C348.247 275.873 348.053 275.46 347.787 275.1C347.533 274.74 347.2 274.453 346.787 274.24C346.387 274.027 345.913 273.92 345.367 273.92C344.793 273.92 344.307 274.033 343.907 274.26C343.507 274.487 343.18 274.787 342.927 275.16C342.673 275.52 342.487 275.933 342.367 276.4C342.26 276.867 342.207 277.34 342.207 277.82C342.207 278.327 342.267 278.82 342.387 279.3C342.507 279.767 342.693 280.18 342.947 280.54C343.213 280.9 343.553 281.193 343.967 281.42C344.38 281.633 344.88 281.74 345.467 281.74C346.053 281.74 346.54 281.627 346.927 281.4C347.327 281.173 347.647 280.873 347.887 280.5C348.127 280.127 348.3 279.7 348.407 279.22C348.513 278.74 348.567 278.247 348.567 277.74ZM352.462 268.72H354.162V283H352.462V268.72ZM363.976 276.84C363.949 276.44 363.856 276.06 363.696 275.7C363.549 275.34 363.342 275.033 363.076 274.78C362.822 274.513 362.516 274.307 362.156 274.16C361.809 274 361.422 273.92 360.996 273.92C360.556 273.92 360.156 274 359.796 274.16C359.449 274.307 359.149 274.513 358.896 274.78C358.642 275.047 358.442 275.36 358.296 275.72C358.149 276.067 358.062 276.44 358.036 276.84H363.976ZM365.616 279.72C365.389 280.88 364.889 281.753 364.116 282.34C363.342 282.927 362.369 283.22 361.196 283.22C360.369 283.22 359.649 283.087 359.036 282.82C358.436 282.553 357.929 282.18 357.516 281.7C357.102 281.22 356.789 280.647 356.576 279.98C356.376 279.313 356.262 278.587 356.236 277.8C356.236 277.013 356.356 276.293 356.596 275.64C356.836 274.987 357.169 274.42 357.596 273.94C358.036 273.46 358.549 273.087 359.136 272.82C359.736 272.553 360.389 272.42 361.096 272.42C362.016 272.42 362.776 272.613 363.376 273C363.989 273.373 364.476 273.853 364.836 274.44C365.209 275.027 365.462 275.667 365.596 276.36C365.742 277.053 365.802 277.713 365.776 278.34H358.036C358.022 278.793 358.076 279.227 358.196 279.64C358.316 280.04 358.509 280.4 358.776 280.72C359.042 281.027 359.382 281.273 359.796 281.46C360.209 281.647 360.696 281.74 361.256 281.74C361.976 281.74 362.562 281.573 363.016 281.24C363.482 280.907 363.789 280.4 363.936 279.72H365.616ZM367.538 272.66H369.138V274.18H369.178C369.951 273.007 371.064 272.42 372.518 272.42C373.158 272.42 373.738 272.553 374.258 272.82C374.778 273.087 375.144 273.54 375.358 274.18C375.704 273.62 376.158 273.187 376.718 272.88C377.291 272.573 377.918 272.42 378.598 272.42C379.118 272.42 379.584 272.48 379.998 272.6C380.424 272.707 380.784 272.88 381.078 273.12C381.384 273.36 381.618 273.673 381.778 274.06C381.951 274.433 382.038 274.887 382.038 275.42V283H380.338V276.22C380.338 275.9 380.311 275.6 380.258 275.32C380.204 275.04 380.104 274.8 379.958 274.6C379.811 274.387 379.604 274.22 379.338 274.1C379.084 273.98 378.751 273.92 378.338 273.92C377.498 273.92 376.838 274.16 376.358 274.64C375.878 275.12 375.638 275.76 375.638 276.56V283H373.938V276.22C373.938 275.887 373.904 275.58 373.838 275.3C373.784 275.02 373.684 274.78 373.538 274.58C373.391 274.367 373.191 274.207 372.938 274.1C372.698 273.98 372.384 273.92 371.998 273.92C371.504 273.92 371.078 274.02 370.718 274.22C370.371 274.42 370.084 274.66 369.858 274.94C369.644 275.22 369.484 275.513 369.378 275.82C369.284 276.113 369.238 276.36 369.238 276.56V283H367.538V272.66ZM391.769 276.84C391.742 276.44 391.649 276.06 391.489 275.7C391.342 275.34 391.135 275.033 390.869 274.78C390.615 274.513 390.309 274.307 389.949 274.16C389.602 274 389.215 273.92 388.789 273.92C388.349 273.92 387.949 274 387.589 274.16C387.242 274.307 386.942 274.513 386.689 274.78C386.435 275.047 386.235 275.36 386.089 275.72C385.942 276.067 385.855 276.44 385.829 276.84H391.769ZM393.409 279.72C393.182 280.88 392.682 281.753 391.909 282.34C391.135 282.927 390.162 283.22 388.989 283.22C388.162 283.22 387.442 283.087 386.829 282.82C386.229 282.553 385.722 282.18 385.309 281.7C384.895 281.22 384.582 280.647 384.369 279.98C384.169 279.313 384.055 278.587 384.029 277.8C384.029 277.013 384.149 276.293 384.389 275.64C384.629 274.987 384.962 274.42 385.389 273.94C385.829 273.46 386.342 273.087 386.929 272.82C387.529 272.553 388.182 272.42 388.889 272.42C389.809 272.42 390.569 272.613 391.169 273C391.782 273.373 392.269 273.853 392.629 274.44C393.002 275.027 393.255 275.667 393.389 276.36C393.535 277.053 393.595 277.713 393.569 278.34H385.829C385.815 278.793 385.869 279.227 385.989 279.64C386.109 280.04 386.302 280.4 386.569 280.72C386.835 281.027 387.175 281.273 387.589 281.46C388.002 281.647 388.489 281.74 389.049 281.74C389.769 281.74 390.355 281.573 390.809 281.24C391.275 280.907 391.582 280.4 391.729 279.72H393.409ZM395.331 272.66H396.931V274.3H396.971C397.677 273.047 398.797 272.42 400.331 272.42C401.011 272.42 401.577 272.513 402.031 272.7C402.484 272.887 402.851 273.147 403.131 273.48C403.411 273.813 403.604 274.213 403.711 274.68C403.831 275.133 403.891 275.64 403.891 276.2V283H402.191V276C402.191 275.36 402.004 274.853 401.631 274.48C401.257 274.107 400.744 273.92 400.091 273.92C399.571 273.92 399.117 274 398.731 274.16C398.357 274.32 398.044 274.547 397.791 274.84C397.537 275.133 397.344 275.48 397.211 275.88C397.091 276.267 397.031 276.693 397.031 277.16V283H395.331V272.66ZM408.804 272.66H410.864V274.16H408.804V280.58C408.804 280.78 408.817 280.94 408.844 281.06C408.884 281.18 408.951 281.273 409.044 281.34C409.137 281.407 409.264 281.453 409.424 281.48C409.597 281.493 409.817 281.5 410.084 281.5H410.864V283H409.564C409.124 283 408.744 282.973 408.424 282.92C408.117 282.853 407.864 282.74 407.664 282.58C407.477 282.42 407.337 282.193 407.244 281.9C407.151 281.607 407.104 281.22 407.104 280.74V274.16H405.344V272.66H407.104V269.56H408.804V272.66ZM421.913 282.96C421.619 283.133 421.213 283.22 420.693 283.22C420.253 283.22 419.899 283.1 419.633 282.86C419.379 282.607 419.253 282.2 419.253 281.64C418.786 282.2 418.239 282.607 417.613 282.86C416.999 283.1 416.333 283.22 415.613 283.22C415.146 283.22 414.699 283.167 414.273 283.06C413.859 282.953 413.499 282.787 413.193 282.56C412.886 282.333 412.639 282.04 412.453 281.68C412.279 281.307 412.193 280.86 412.193 280.34C412.193 279.753 412.293 279.273 412.493 278.9C412.693 278.527 412.953 278.227 413.273 278C413.606 277.76 413.979 277.58 414.393 277.46C414.819 277.34 415.253 277.24 415.693 277.16C416.159 277.067 416.599 277 417.013 276.96C417.439 276.907 417.813 276.84 418.133 276.76C418.453 276.667 418.706 276.54 418.893 276.38C419.079 276.207 419.173 275.96 419.173 275.64C419.173 275.267 419.099 274.967 418.953 274.74C418.819 274.513 418.639 274.34 418.413 274.22C418.199 274.1 417.953 274.02 417.673 273.98C417.406 273.94 417.139 273.92 416.873 273.92C416.153 273.92 415.553 274.06 415.073 274.34C414.593 274.607 414.333 275.12 414.293 275.88H412.593C412.619 275.24 412.753 274.7 412.993 274.26C413.233 273.82 413.553 273.467 413.953 273.2C414.353 272.92 414.806 272.72 415.313 272.6C415.833 272.48 416.386 272.42 416.973 272.42C417.439 272.42 417.899 272.453 418.353 272.52C418.819 272.587 419.239 272.727 419.613 272.94C419.986 273.14 420.286 273.427 420.513 273.8C420.739 274.173 420.853 274.66 420.853 275.26V280.58C420.853 280.98 420.873 281.273 420.913 281.46C420.966 281.647 421.126 281.74 421.393 281.74C421.539 281.74 421.713 281.707 421.913 281.64V282.96ZM419.153 277.66C418.939 277.82 418.659 277.94 418.313 278.02C417.966 278.087 417.599 278.147 417.213 278.2C416.839 278.24 416.459 278.293 416.073 278.36C415.686 278.413 415.339 278.507 415.033 278.64C414.726 278.773 414.473 278.967 414.273 279.22C414.086 279.46 413.993 279.793 413.993 280.22C413.993 280.5 414.046 280.74 414.153 280.94C414.273 281.127 414.419 281.28 414.593 281.4C414.779 281.52 414.993 281.607 415.233 281.66C415.473 281.713 415.726 281.74 415.993 281.74C416.553 281.74 417.033 281.667 417.433 281.52C417.833 281.36 418.159 281.167 418.413 280.94C418.666 280.7 418.853 280.447 418.973 280.18C419.093 279.9 419.153 279.64 419.153 279.4V277.66ZM425.855 272.66H427.915V274.16H425.855V280.58C425.855 280.78 425.868 280.94 425.895 281.06C425.935 281.18 426.002 281.273 426.095 281.34C426.188 281.407 426.315 281.453 426.475 281.48C426.648 281.493 426.868 281.5 427.135 281.5H427.915V283H426.615C426.175 283 425.795 282.973 425.475 282.92C425.168 282.853 424.915 282.74 424.715 282.58C424.528 282.42 424.388 282.193 424.295 281.9C424.202 281.607 424.155 281.22 424.155 280.74V274.16H422.395V272.66H424.155V269.56H425.855V272.66ZM431.603 270.8H429.903V268.72H431.603V270.8ZM429.903 272.66H431.603V283H429.903V272.66ZM435.477 277.84C435.477 278.467 435.557 279.027 435.717 279.52C435.89 280 436.124 280.407 436.417 280.74C436.71 281.06 437.05 281.307 437.437 281.48C437.837 281.653 438.257 281.74 438.697 281.74C439.137 281.74 439.55 281.653 439.937 281.48C440.337 281.307 440.684 281.06 440.977 280.74C441.27 280.407 441.497 280 441.657 279.52C441.83 279.027 441.917 278.467 441.917 277.84C441.917 277.213 441.83 276.66 441.657 276.18C441.497 275.687 441.27 275.273 440.977 274.94C440.684 274.607 440.337 274.353 439.937 274.18C439.55 274.007 439.137 273.92 438.697 273.92C438.257 273.92 437.837 274.007 437.437 274.18C437.05 274.353 436.71 274.607 436.417 274.94C436.124 275.273 435.89 275.687 435.717 276.18C435.557 276.66 435.477 277.213 435.477 277.84ZM433.677 277.84C433.677 277.08 433.784 276.373 433.997 275.72C434.21 275.053 434.53 274.48 434.957 274C435.384 273.507 435.91 273.12 436.537 272.84C437.164 272.56 437.884 272.42 438.697 272.42C439.524 272.42 440.244 272.56 440.857 272.84C441.484 273.12 442.01 273.507 442.437 274C442.864 274.48 443.184 275.053 443.397 275.72C443.61 276.373 443.717 277.08 443.717 277.84C443.717 278.6 443.61 279.307 443.397 279.96C443.184 280.613 442.864 281.187 442.437 281.68C442.01 282.16 441.484 282.54 440.857 282.82C440.244 283.087 439.524 283.22 438.697 283.22C437.884 283.22 437.164 283.087 436.537 282.82C435.91 282.54 435.384 282.16 434.957 281.68C434.53 281.187 434.21 280.613 433.997 279.96C433.784 279.307 433.677 278.6 433.677 277.84ZM445.721 272.66H447.321V274.3H447.361C448.068 273.047 449.188 272.42 450.721 272.42C451.401 272.42 451.968 272.513 452.421 272.7C452.875 272.887 453.241 273.147 453.521 273.48C453.801 273.813 453.995 274.213 454.101 274.68C454.221 275.133 454.281 275.64 454.281 276.2V283H452.581V276C452.581 275.36 452.395 274.853 452.021 274.48C451.648 274.107 451.135 273.92 450.481 273.92C449.961 273.92 449.508 274 449.121 274.16C448.748 274.32 448.435 274.547 448.181 274.84C447.928 275.133 447.735 275.48 447.601 275.88C447.481 276.267 447.421 276.693 447.421 277.16V283H445.721V272.66Z" fill="#4D4A4A"/>
<path d="M287.426 306.641C287.89 306.526 288.381 306.697 288.648 307.067L294.46 315.097C294.709 315.441 294.715 315.891 294.475 316.241C294.234 316.591 293.792 316.776 293.351 316.711L291.412 316.427L292.878 321.505C293.039 322.062 292.682 322.635 292.082 322.784C291.482 322.933 290.865 322.603 290.704 322.046L289.227 316.923L287.662 318.035C287.311 318.285 286.834 318.32 286.444 318.125C286.055 317.93 285.825 317.541 285.856 317.131L286.593 307.575C286.627 307.131 286.962 306.755 287.426 306.641ZM281.666 311.688C282.105 311.281 282.818 311.281 283.258 311.688C283.697 312.096 283.697 312.757 283.258 313.165L281.666 314.643C281.227 315.05 280.514 315.05 280.075 314.643C279.636 314.235 279.636 313.573 280.075 313.165L281.666 311.688ZM280.375 306.704C280.996 306.704 281.5 307.172 281.5 307.749C281.5 308.326 280.996 308.794 280.375 308.794H278.125C277.504 308.794 277 308.326 277 307.749C277 307.172 277.504 306.704 278.125 306.704H280.375ZM296.875 306.704C297.496 306.704 298 307.172 298 307.749C298 308.326 297.496 308.794 296.875 308.794H294.625C294.004 308.794 293.5 308.326 293.5 307.749C293.5 307.172 294.004 306.704 294.625 306.704H296.875ZM280.075 300.855C280.514 300.448 281.227 300.448 281.666 300.855L283.258 302.333C283.697 302.741 283.697 303.402 283.258 303.81C282.818 304.217 282.105 304.217 281.666 303.81L280.075 302.333C279.636 301.925 279.636 301.263 280.075 300.855ZM293.334 300.855C293.773 300.448 294.486 300.448 294.925 300.855C295.364 301.263 295.364 301.925 294.925 302.333L293.334 303.81C292.895 304.217 292.182 304.217 291.742 303.81C291.303 303.402 291.303 302.741 291.742 302.333L293.334 300.855ZM287.5 298C288.121 298 288.625 298.468 288.625 299.045V301.134C288.625 301.711 288.121 302.178 287.5 302.178C286.879 302.178 286.375 301.711 286.375 301.134V299.045C286.375 298.468 286.879 298 287.5 298Z" fill="#3CC1A7"/>
<path d="M318.8 304.73H314.04V303.13H325.46V304.73H320.7V317.41H318.8V304.73ZM331.718 311.25C331.691 310.85 331.598 310.47 331.438 310.11C331.291 309.75 331.084 309.443 330.818 309.19C330.564 308.923 330.258 308.717 329.898 308.57C329.551 308.41 329.164 308.33 328.738 308.33C328.298 308.33 327.898 308.41 327.538 308.57C327.191 308.717 326.891 308.923 326.638 309.19C326.384 309.457 326.184 309.77 326.038 310.13C325.891 310.477 325.804 310.85 325.778 311.25H331.718ZM333.358 314.13C333.131 315.29 332.631 316.163 331.858 316.75C331.084 317.337 330.111 317.63 328.938 317.63C328.111 317.63 327.391 317.497 326.778 317.23C326.178 316.963 325.671 316.59 325.258 316.11C324.844 315.63 324.531 315.057 324.318 314.39C324.118 313.723 324.004 312.997 323.978 312.21C323.978 311.423 324.098 310.703 324.338 310.05C324.578 309.397 324.911 308.83 325.338 308.35C325.778 307.87 326.291 307.497 326.878 307.23C327.478 306.963 328.131 306.83 328.838 306.83C329.758 306.83 330.518 307.023 331.118 307.41C331.731 307.783 332.218 308.263 332.578 308.85C332.951 309.437 333.204 310.077 333.338 310.77C333.484 311.463 333.544 312.123 333.518 312.75H325.778C325.764 313.203 325.818 313.637 325.938 314.05C326.058 314.45 326.251 314.81 326.518 315.13C326.784 315.437 327.124 315.683 327.538 315.87C327.951 316.057 328.438 316.15 328.998 316.15C329.718 316.15 330.304 315.983 330.758 315.65C331.224 315.317 331.531 314.81 331.678 314.13H333.358ZM336.32 314.15C336.333 314.523 336.42 314.843 336.58 315.11C336.74 315.363 336.947 315.57 337.2 315.73C337.467 315.877 337.76 315.983 338.08 316.05C338.413 316.117 338.753 316.15 339.1 316.15C339.367 316.15 339.647 316.13 339.94 316.09C340.233 316.05 340.5 315.977 340.74 315.87C340.993 315.763 341.2 315.61 341.36 315.41C341.52 315.197 341.6 314.93 341.6 314.61C341.6 314.17 341.433 313.837 341.1 313.61C340.767 313.383 340.347 313.203 339.84 313.07C339.347 312.923 338.807 312.797 338.22 312.69C337.633 312.57 337.087 312.41 336.58 312.21C336.087 311.997 335.673 311.703 335.34 311.33C335.007 310.957 334.84 310.437 334.84 309.77C334.84 309.25 334.953 308.803 335.18 308.43C335.42 308.057 335.72 307.757 336.08 307.53C336.453 307.29 336.867 307.117 337.32 307.01C337.787 306.89 338.247 306.83 338.7 306.83C339.287 306.83 339.827 306.883 340.32 306.99C340.813 307.083 341.247 307.257 341.62 307.51C342.007 307.75 342.313 308.083 342.54 308.51C342.767 308.923 342.9 309.443 342.94 310.07H341.24C341.213 309.737 341.127 309.463 340.98 309.25C340.833 309.023 340.647 308.843 340.42 308.71C340.193 308.577 339.94 308.483 339.66 308.43C339.393 308.363 339.12 308.33 338.84 308.33C338.587 308.33 338.327 308.35 338.06 308.39C337.807 308.43 337.573 308.503 337.36 308.61C337.147 308.703 336.973 308.837 336.84 309.01C336.707 309.17 336.64 309.383 336.64 309.65C336.64 309.943 336.74 310.19 336.94 310.39C337.153 310.577 337.42 310.737 337.74 310.87C338.06 310.99 338.42 311.097 338.82 311.19C339.22 311.27 339.62 311.357 340.02 311.45C340.447 311.543 340.86 311.657 341.26 311.79C341.673 311.923 342.033 312.103 342.34 312.33C342.66 312.543 342.913 312.817 343.1 313.15C343.3 313.483 343.4 313.897 343.4 314.39C343.4 315.017 343.267 315.537 343 315.95C342.747 316.363 342.407 316.697 341.98 316.95C341.567 317.203 341.093 317.377 340.56 317.47C340.04 317.577 339.52 317.63 339 317.63C338.427 317.63 337.88 317.57 337.36 317.45C336.84 317.33 336.38 317.137 335.98 316.87C335.58 316.59 335.26 316.23 335.02 315.79C334.78 315.337 334.647 314.79 334.62 314.15H336.32ZM347.64 307.07H349.7V308.57H347.64V314.99C347.64 315.19 347.653 315.35 347.68 315.47C347.72 315.59 347.787 315.683 347.88 315.75C347.973 315.817 348.1 315.863 348.26 315.89C348.433 315.903 348.653 315.91 348.92 315.91H349.7V317.41H348.4C347.96 317.41 347.58 317.383 347.26 317.33C346.953 317.263 346.7 317.15 346.5 316.99C346.313 316.83 346.173 316.603 346.08 316.31C345.987 316.017 345.94 315.63 345.94 315.15V308.57H344.18V307.07H345.94V303.97H347.64V307.07ZM353.389 305.21H351.689V303.13H353.389V305.21ZM351.689 307.07H353.389V317.41H351.689V307.07ZM356.022 307.07H357.622V308.71H357.662C358.369 307.457 359.489 306.83 361.022 306.83C361.702 306.83 362.269 306.923 362.722 307.11C363.176 307.297 363.542 307.557 363.822 307.89C364.102 308.223 364.296 308.623 364.402 309.09C364.522 309.543 364.582 310.05 364.582 310.61V317.41H362.882V310.41C362.882 309.77 362.696 309.263 362.322 308.89C361.949 308.517 361.436 308.33 360.782 308.33C360.262 308.33 359.809 308.41 359.422 308.57C359.049 308.73 358.736 308.957 358.482 309.25C358.229 309.543 358.036 309.89 357.902 310.29C357.782 310.677 357.722 311.103 357.722 311.57V317.41H356.022V307.07ZM376.055 316.53C376.055 318.223 375.669 319.49 374.895 320.33C374.122 321.17 372.909 321.59 371.255 321.59C370.775 321.59 370.282 321.537 369.775 321.43C369.282 321.323 368.829 321.15 368.415 320.91C368.015 320.67 367.682 320.357 367.415 319.97C367.149 319.583 367.002 319.11 366.975 318.55H368.675C368.689 318.857 368.782 319.117 368.955 319.33C369.142 319.543 369.362 319.717 369.615 319.85C369.882 319.983 370.169 320.077 370.475 320.13C370.782 320.197 371.075 320.23 371.355 320.23C371.915 320.23 372.389 320.13 372.775 319.93C373.162 319.743 373.482 319.477 373.735 319.13C373.989 318.797 374.169 318.39 374.275 317.91C374.395 317.43 374.455 316.903 374.455 316.33V315.65H374.415C374.122 316.29 373.675 316.763 373.075 317.07C372.489 317.363 371.862 317.51 371.195 317.51C370.422 317.51 369.749 317.37 369.175 317.09C368.602 316.81 368.122 316.437 367.735 315.97C367.349 315.49 367.055 314.937 366.855 314.31C366.669 313.67 366.575 312.997 366.575 312.29C366.575 311.677 366.655 311.05 366.815 310.41C366.975 309.757 367.242 309.17 367.615 308.65C367.989 308.117 368.482 307.683 369.095 307.35C369.709 307.003 370.462 306.83 371.355 306.83C372.009 306.83 372.609 306.977 373.155 307.27C373.702 307.55 374.129 307.977 374.435 308.55H374.455V307.07H376.055V316.53ZM371.295 316.03C371.855 316.03 372.329 315.917 372.715 315.69C373.115 315.45 373.435 315.143 373.675 314.77C373.915 314.383 374.089 313.95 374.195 313.47C374.315 312.99 374.375 312.51 374.375 312.03C374.375 311.577 374.322 311.13 374.215 310.69C374.109 310.25 373.935 309.857 373.695 309.51C373.469 309.15 373.169 308.863 372.795 308.65C372.422 308.437 371.969 308.33 371.435 308.33C370.889 308.33 370.422 308.437 370.035 308.65C369.649 308.85 369.329 309.123 369.075 309.47C368.835 309.817 368.655 310.217 368.535 310.67C368.429 311.123 368.375 311.597 368.375 312.09C368.375 312.557 368.422 313.023 368.515 313.49C368.609 313.957 368.769 314.383 368.995 314.77C369.222 315.143 369.522 315.45 369.895 315.69C370.269 315.917 370.735 316.03 371.295 316.03Z" fill="#4D4A4A"/>
<path fill-rule="evenodd" clip-rule="evenodd" d="M281.808 348.779C282.146 349.216 282.066 349.844 281.629 350.182C280.839 350.793 280.333 351.747 280.333 352.82C280.333 353.029 280.352 353.233 280.389 353.431C280.587 353.467 280.791 353.487 281 353.487C282.073 353.487 283.027 352.981 283.638 352.191C283.976 351.754 284.604 351.674 285.041 352.012C285.478 352.35 285.558 352.978 285.22 353.415C284.246 354.673 282.718 355.487 281 355.487C280.387 355.487 279.796 355.383 279.245 355.191C278.956 355.09 278.73 354.864 278.629 354.575C278.437 354.024 278.333 353.433 278.333 352.82C278.333 351.102 279.147 349.574 280.405 348.6C280.842 348.262 281.47 348.342 281.808 348.779Z" fill="#3CC1A7"/>
<path fill-rule="evenodd" clip-rule="evenodd" d="M283.336 347.487C284.21 348.603 285.216 349.61 286.333 350.483V355.82C286.333 356.372 286.781 356.82 287.333 356.82C291.015 356.82 294 353.835 294 350.153C294 349.5 293.906 348.867 293.729 348.268C298.129 345.126 301 339.975 301 334.153C301 334.036 300.999 333.92 300.997 333.803C300.986 333.267 300.553 332.834 300.017 332.823C299.9 332.821 299.784 332.82 299.667 332.82C293.845 332.82 288.694 335.691 285.552 340.09C284.953 339.914 284.32 339.82 283.667 339.82C279.985 339.82 277 342.805 277 346.487C277 347.039 277.448 347.487 278 347.487H283.336ZM293 343.487C294.473 343.487 295.667 342.293 295.667 340.82C295.667 339.347 294.473 338.153 293 338.153C291.527 338.153 290.333 339.347 290.333 340.82C290.333 342.293 291.527 343.487 293 343.487Z" fill="#3CC1A7"/>
<path d="M320.46 350.22H323.62C323.833 350.22 324.1 350.207 324.42 350.18C324.74 350.14 325.08 350.06 325.44 349.94C325.8 349.807 326.153 349.62 326.5 349.38C326.86 349.14 327.18 348.813 327.46 348.4C327.74 347.987 327.967 347.473 328.14 346.86C328.327 346.233 328.42 345.48 328.42 344.6C328.42 343.747 328.333 342.987 328.16 342.32C328 341.64 327.727 341.067 327.34 340.6C326.967 340.12 326.48 339.76 325.88 339.52C325.28 339.267 324.54 339.14 323.66 339.14H320.46V350.22ZM318.56 337.54H323.46C325.66 337.54 327.353 338.1 328.54 339.22C329.727 340.34 330.32 342.047 330.32 344.34C330.32 345.54 330.187 346.607 329.92 347.54C329.653 348.46 329.24 349.24 328.68 349.88C328.12 350.507 327.407 350.987 326.54 351.32C325.673 351.653 324.647 351.82 323.46 351.82H318.56V337.54ZM339.542 345.66C339.515 345.26 339.422 344.88 339.262 344.52C339.115 344.16 338.909 343.853 338.642 343.6C338.389 343.333 338.082 343.127 337.722 342.98C337.375 342.82 336.989 342.74 336.562 342.74C336.122 342.74 335.722 342.82 335.362 342.98C335.015 343.127 334.715 343.333 334.462 343.6C334.209 343.867 334.009 344.18 333.862 344.54C333.715 344.887 333.629 345.26 333.602 345.66H339.542ZM341.182 348.54C340.955 349.7 340.455 350.573 339.682 351.16C338.909 351.747 337.935 352.04 336.762 352.04C335.935 352.04 335.215 351.907 334.602 351.64C334.002 351.373 333.495 351 333.082 350.52C332.669 350.04 332.355 349.467 332.142 348.8C331.942 348.133 331.829 347.407 331.802 346.62C331.802 345.833 331.922 345.113 332.162 344.46C332.402 343.807 332.735 343.24 333.162 342.76C333.602 342.28 334.115 341.907 334.702 341.64C335.302 341.373 335.955 341.24 336.662 341.24C337.582 341.24 338.342 341.433 338.942 341.82C339.555 342.193 340.042 342.673 340.402 343.26C340.775 343.847 341.029 344.487 341.162 345.18C341.309 345.873 341.369 346.533 341.342 347.16H333.602C333.589 347.613 333.642 348.047 333.762 348.46C333.882 348.86 334.075 349.22 334.342 349.54C334.609 349.847 334.949 350.093 335.362 350.28C335.775 350.467 336.262 350.56 336.822 350.56C337.542 350.56 338.129 350.393 338.582 350.06C339.049 349.727 339.355 349.22 339.502 348.54H341.182ZM343.164 341.48H344.864V342.88H344.904C345.184 342.307 345.624 341.893 346.224 341.64C346.824 341.373 347.484 341.24 348.204 341.24C349.004 341.24 349.698 341.387 350.284 341.68C350.884 341.973 351.378 342.373 351.764 342.88C352.164 343.373 352.464 343.947 352.664 344.6C352.864 345.253 352.964 345.947 352.964 346.68C352.964 347.413 352.864 348.107 352.664 348.76C352.478 349.413 352.184 349.987 351.784 350.48C351.398 350.96 350.904 351.34 350.304 351.62C349.718 351.9 349.031 352.04 348.244 352.04C347.991 352.04 347.704 352.013 347.384 351.96C347.078 351.907 346.771 351.82 346.464 351.7C346.158 351.58 345.864 351.42 345.584 351.22C345.318 351.007 345.091 350.747 344.904 350.44H344.864V355.76H343.164V341.48ZM351.164 346.56C351.164 346.08 351.098 345.613 350.964 345.16C350.844 344.693 350.651 344.28 350.384 343.92C350.131 343.56 349.798 343.273 349.384 343.06C348.984 342.847 348.511 342.74 347.964 342.74C347.391 342.74 346.904 342.853 346.504 343.08C346.104 343.307 345.778 343.607 345.524 343.98C345.271 344.34 345.084 344.753 344.964 345.22C344.858 345.687 344.804 346.16 344.804 346.64C344.804 347.147 344.864 347.64 344.984 348.12C345.104 348.587 345.291 349 345.544 349.36C345.811 349.72 346.151 350.013 346.564 350.24C346.978 350.453 347.478 350.56 348.064 350.56C348.651 350.56 349.138 350.447 349.524 350.22C349.924 349.993 350.244 349.693 350.484 349.32C350.724 348.947 350.898 348.52 351.004 348.04C351.111 347.56 351.164 347.067 351.164 346.56ZM355.06 337.54H356.76V351.82H355.06V337.54ZM360.633 346.66C360.633 347.287 360.713 347.847 360.873 348.34C361.047 348.82 361.28 349.227 361.573 349.56C361.867 349.88 362.207 350.127 362.593 350.3C362.993 350.473 363.413 350.56 363.853 350.56C364.293 350.56 364.707 350.473 365.093 350.3C365.493 350.127 365.84 349.88 366.133 349.56C366.427 349.227 366.653 348.82 366.813 348.34C366.987 347.847 367.073 347.287 367.073 346.66C367.073 346.033 366.987 345.48 366.813 345C366.653 344.507 366.427 344.093 366.133 343.76C365.84 343.427 365.493 343.173 365.093 343C364.707 342.827 364.293 342.74 363.853 342.74C363.413 342.74 362.993 342.827 362.593 343C362.207 343.173 361.867 343.427 361.573 343.76C361.28 344.093 361.047 344.507 360.873 345C360.713 345.48 360.633 346.033 360.633 346.66ZM358.833 346.66C358.833 345.9 358.94 345.193 359.153 344.54C359.367 343.873 359.687 343.3 360.113 342.82C360.54 342.327 361.067 341.94 361.693 341.66C362.32 341.38 363.04 341.24 363.853 341.24C364.68 341.24 365.4 341.38 366.013 341.66C366.64 341.94 367.167 342.327 367.593 342.82C368.02 343.3 368.34 343.873 368.553 344.54C368.767 345.193 368.873 345.9 368.873 346.66C368.873 347.42 368.767 348.127 368.553 348.78C368.34 349.433 368.02 350.007 367.593 350.5C367.167 350.98 366.64 351.36 366.013 351.64C365.4 351.907 364.68 352.04 363.853 352.04C363.04 352.04 362.32 351.907 361.693 351.64C361.067 351.36 360.54 350.98 360.113 350.5C359.687 350.007 359.367 349.433 359.153 348.78C358.94 348.127 358.833 347.42 358.833 346.66ZM374.938 353.2C374.738 353.707 374.538 354.133 374.338 354.48C374.151 354.827 373.938 355.107 373.698 355.32C373.471 355.547 373.211 355.707 372.918 355.8C372.638 355.907 372.311 355.96 371.938 355.96C371.738 355.96 371.538 355.947 371.338 355.92C371.138 355.893 370.944 355.847 370.758 355.78V354.22C370.904 354.287 371.071 354.34 371.258 354.38C371.458 354.433 371.624 354.46 371.758 354.46C372.104 354.46 372.391 354.373 372.618 354.2C372.858 354.04 373.038 353.807 373.158 353.5L373.858 351.76L369.758 341.48H371.678L374.698 349.94H374.738L377.638 341.48H379.438L374.938 353.2ZM380.878 341.48H382.478V343H382.518C383.291 341.827 384.404 341.24 385.858 341.24C386.498 341.24 387.078 341.373 387.598 341.64C388.118 341.907 388.484 342.36 388.698 343C389.044 342.44 389.498 342.007 390.058 341.7C390.631 341.393 391.258 341.24 391.938 341.24C392.458 341.24 392.924 341.3 393.338 341.42C393.764 341.527 394.124 341.7 394.418 341.94C394.724 342.18 394.958 342.493 395.118 342.88C395.291 343.253 395.378 343.707 395.378 344.24V351.82H393.678V345.04C393.678 344.72 393.651 344.42 393.598 344.14C393.544 343.86 393.444 343.62 393.298 343.42C393.151 343.207 392.944 343.04 392.678 342.92C392.424 342.8 392.091 342.74 391.678 342.74C390.838 342.74 390.178 342.98 389.698 343.46C389.218 343.94 388.978 344.58 388.978 345.38V351.82H387.278V345.04C387.278 344.707 387.244 344.4 387.178 344.12C387.124 343.84 387.024 343.6 386.878 343.4C386.731 343.187 386.531 343.027 386.278 342.92C386.038 342.8 385.724 342.74 385.338 342.74C384.844 342.74 384.418 342.84 384.058 343.04C383.711 343.24 383.424 343.48 383.198 343.76C382.984 344.04 382.824 344.333 382.718 344.64C382.624 344.933 382.578 345.18 382.578 345.38V351.82H380.878V341.48ZM405.108 345.66C405.082 345.26 404.988 344.88 404.828 344.52C404.682 344.16 404.475 343.853 404.208 343.6C403.955 343.333 403.648 343.127 403.288 342.98C402.942 342.82 402.555 342.74 402.128 342.74C401.688 342.74 401.288 342.82 400.928 342.98C400.582 343.127 400.282 343.333 400.028 343.6C399.775 343.867 399.575 344.18 399.428 344.54C399.282 344.887 399.195 345.26 399.168 345.66H405.108ZM406.748 348.54C406.522 349.7 406.022 350.573 405.248 351.16C404.475 351.747 403.502 352.04 402.328 352.04C401.502 352.04 400.782 351.907 400.168 351.64C399.568 351.373 399.062 351 398.648 350.52C398.235 350.04 397.922 349.467 397.708 348.8C397.508 348.133 397.395 347.407 397.368 346.62C397.368 345.833 397.488 345.113 397.728 344.46C397.968 343.807 398.302 343.24 398.728 342.76C399.168 342.28 399.682 341.907 400.268 341.64C400.868 341.373 401.522 341.24 402.228 341.24C403.148 341.24 403.908 341.433 404.508 341.82C405.122 342.193 405.608 342.673 405.968 343.26C406.342 343.847 406.595 344.487 406.728 345.18C406.875 345.873 406.935 346.533 406.908 347.16H399.168C399.155 347.613 399.208 348.047 399.328 348.46C399.448 348.86 399.642 349.22 399.908 349.54C400.175 349.847 400.515 350.093 400.928 350.28C401.342 350.467 401.828 350.56 402.388 350.56C403.108 350.56 403.695 350.393 404.148 350.06C404.615 349.727 404.922 349.22 405.068 348.54H406.748ZM408.671 341.48H410.271V343.12H410.311C411.017 341.867 412.137 341.24 413.671 341.24C414.351 341.24 414.917 341.333 415.371 341.52C415.824 341.707 416.191 341.967 416.471 342.3C416.751 342.633 416.944 343.033 417.051 343.5C417.171 343.953 417.231 344.46 417.231 345.02V351.82H415.531V344.82C415.531 344.18 415.344 343.673 414.971 343.3C414.597 342.927 414.084 342.74 413.431 342.74C412.911 342.74 412.457 342.82 412.071 342.98C411.697 343.14 411.384 343.367 411.131 343.66C410.877 343.953 410.684 344.3 410.551 344.7C410.431 345.087 410.371 345.513 410.371 345.98V351.82H408.671V341.48ZM422.144 341.48H424.204V342.98H422.144V349.4C422.144 349.6 422.157 349.76 422.184 349.88C422.224 350 422.291 350.093 422.384 350.16C422.477 350.227 422.604 350.273 422.764 350.3C422.937 350.313 423.157 350.32 423.424 350.32H424.204V351.82H422.904C422.464 351.82 422.084 351.793 421.764 351.74C421.457 351.673 421.204 351.56 421.004 351.4C420.817 351.24 420.677 351.013 420.584 350.72C420.491 350.427 420.444 350.04 420.444 349.56V342.98H418.684V341.48H420.444V338.38H422.144V341.48Z" fill="#4D4A4A"/>
<line x1="332" y1="132" x2="416" y2="132" stroke="#B3B3B3" stroke-width="2"/>
<line x1="417" y1="131" x2="417" y2="233" stroke="#B3B3B3" stroke-width="2"/>
<path d="M417 238L411.804 229.75H422.196L417 238Z" fill="#B3B3B3"/>
</svg>
